G04 DipTrace 2.4.0.2*
%INusbcharger-bluetooth2.GTL*%
%MOIN*%
%ADD14C,0.0118*%
%ADD15C,0.0787*%
%ADD16C,0.0236*%
%ADD17C,0.0394*%
%ADD18C,0.0315*%
%ADD19C,0.0157*%
%ADD20C,0.0197*%
%ADD21C,0.013*%
%ADD24R,0.0709X0.063*%
%ADD25R,0.0591X0.0512*%
%ADD26R,0.0394X0.0433*%
%ADD27R,0.063X0.0709*%
%ADD28R,0.0512X0.0591*%
%ADD29R,0.0433X0.0394*%
%ADD30R,0.0551X0.0886*%
%ADD32R,0.0236X0.0236*%
%ADD33R,0.063X0.063*%
%ADD34C,0.063*%
%ADD35C,0.063*%
%ADD36C,0.126*%
%ADD37R,0.1299X0.3228*%
%ADD38R,0.0394X0.126*%
%ADD39R,0.1772X0.0709*%
%ADD40R,0.126X0.0394*%
%ADD44R,0.0709X0.0157*%
%ADD45R,0.0984X0.1378*%
%ADD48O,0.0335X0.0118*%
%ADD49O,0.0118X0.0335*%
%ADD50R,0.0591X0.0591*%
%ADD52R,0.0236X0.0433*%
%ADD53C,0.0591*%
%ADD54R,0.0315X0.0591*%
%ADD55R,0.0591X0.0315*%
%ADD56R,0.0551X0.0551*%
%ADD57C,0.1181*%
%ADD58C,0.036*%
%FSLAX44Y44*%
G04*
G70*
G90*
G75*
G01*
%LNTop*%
%LPD*%
X16283Y13625D2*
D14*
Y14813D1*
X16377D1*
X16314D1*
Y14627D1*
X14000Y13625D2*
Y14813D1*
X13940D1*
X12062D1*
X11063D1*
X12062Y14750D2*
Y14813D1*
X16377Y15564D2*
Y15125D1*
Y14813D1*
X14000Y13625D2*
X16283D1*
X2937Y14549D2*
D15*
X3953Y15564D1*
X13189D1*
X13940Y14813D1*
X19449Y12447D2*
D16*
X18982D1*
X2687Y7875D2*
Y10564D1*
X1688Y11564D1*
Y13299D1*
X2937Y14549D1*
X21565Y14323D2*
D17*
X21502D1*
Y13437D1*
X21496D1*
Y11496D1*
X9768Y7063D2*
D14*
X9812D1*
Y7750D1*
X10187Y8125D1*
X10250D1*
X10251Y8126D1*
X1847Y6542D2*
D18*
Y7272D1*
D16*
Y7742D1*
X1875Y7750D1*
X21496Y11496D2*
D18*
Y4184D1*
X21125Y3813D1*
X17563D1*
X15188Y1438D1*
X13937D1*
X13437D1*
X12687Y2187D1*
X10813D1*
X10000Y3000D1*
Y4438D1*
X8125Y6313D1*
X13875Y1000D2*
D14*
Y1375D1*
X13937Y1438D1*
X1875Y7750D2*
Y8501D1*
X1500Y8876D1*
X12625Y7563D2*
D16*
Y8312D1*
X12437Y8500D1*
X5125Y11688D2*
D17*
Y12750D1*
Y13804D1*
X5446Y14125D1*
X12437Y8500D2*
D15*
X11624Y9313D1*
X5251D1*
X4213Y10351D1*
Y12750D1*
X5125D1*
X14812Y6856D2*
D14*
X14481D1*
X14375Y6750D1*
X12937Y3812D2*
X12313D1*
X14812Y7053D2*
X14322D1*
X14125Y7250D1*
X12625Y6500D2*
Y5768D1*
X12643Y5750D1*
X12999Y6500D2*
X12625D1*
X5397Y2322D2*
Y2353D1*
X4563Y3188D1*
Y3250D1*
X4063D1*
Y4250D1*
Y4434D1*
Y5000D1*
X3990D1*
X5397Y6407D1*
X541D2*
Y4434D1*
X1375D1*
Y2322D1*
X541D1*
X1375Y2250D2*
Y2312D1*
X532D2*
X541Y2322D1*
X1375Y6542D2*
Y5813D1*
X563D1*
Y6407D1*
X541D1*
X4063Y4434D2*
X1375D1*
X5125Y10940D2*
D16*
X6271D1*
X6312Y10898D1*
X14000Y11834D2*
D14*
X14750D1*
Y12338D1*
X14987Y12575D1*
X15142Y12729D1*
X14000Y12857D2*
X14875D1*
X15014D1*
X15142Y12729D1*
X16283Y12857D2*
X15438D1*
X15270D1*
X15142Y12729D1*
X17125Y15564D2*
X17689D1*
Y14899D1*
X17417Y14627D1*
X12062Y14002D2*
Y13938D1*
X11589D1*
X11290D1*
X11063Y13710D1*
X15142Y12729D2*
Y11733D1*
X15187Y11688D1*
X17559Y11102D2*
Y10394D1*
X17953D1*
X11125Y10813D2*
D16*
Y10812D1*
Y10188D1*
X7187D1*
X6500D1*
X6312D1*
Y10229D1*
Y10898D1*
X11125Y10812D2*
D14*
X11681D1*
Y10687D1*
X14175D1*
X14627D1*
Y10360D1*
X17598D1*
Y10812D1*
X17559D1*
Y11102D1*
X22244Y11496D2*
Y11969D1*
Y12460D1*
X22250D1*
X17689Y15564D2*
X17705D1*
X6687Y5375D2*
Y5688D1*
X6063Y6312D1*
X5492D1*
X5397Y6407D1*
X15481Y7526D2*
Y7053D1*
X15383Y6955D1*
X14812Y6660D2*
X14997D1*
X15085Y6747D1*
X15175D1*
X15383Y6955D1*
X12643Y5750D2*
Y5187D1*
X10938D1*
X9251Y6874D1*
Y8126D1*
X14812Y6660D2*
Y6375D1*
X14461D1*
X14125D1*
X13437Y7063D1*
X13063D1*
X13000Y7000D1*
Y6501D1*
X12999Y6500D1*
X18563Y9258D2*
Y10467D1*
X19625D1*
Y5293D2*
Y10467D1*
X17598Y10360D2*
X18669D1*
X18563Y10467D1*
X14107Y10062D2*
Y10619D1*
X14175Y10687D1*
X9251Y8126D2*
Y8625D1*
X5402D1*
Y8563D1*
X4804D1*
X4794Y7875D2*
Y8152D1*
X4804D1*
Y8563D1*
X1206Y7750D2*
Y7419D1*
X1375Y7250D1*
Y6542D1*
X11857Y5750D2*
X12250D1*
X12643D1*
X2937Y12580D2*
Y11564D1*
X3386Y11116D1*
Y10000D1*
X3438D1*
Y9543D1*
X3823D1*
X4813Y8552D1*
Y8553D1*
X3375Y9544D2*
X3386Y10000D1*
X18000Y14562D2*
X17481D1*
X17417Y14627D1*
X15375Y7000D2*
Y6963D1*
X15383Y6955D1*
X13500Y4250D2*
X14267D1*
X14461Y4444D1*
Y6375D1*
X541Y6407D2*
Y9417D1*
X562Y9438D1*
X15157Y12953D2*
Y12857D1*
X15014D1*
X15157Y12520D2*
X14875D1*
Y12857D1*
X15438Y12750D2*
Y12857D1*
X14875Y12313D2*
X14987Y12425D1*
Y12575D1*
X14875Y12750D2*
X14896Y12729D1*
X15142D1*
X15438Y12313D2*
Y12857D1*
X5125Y10940D2*
D16*
Y10439D1*
X5367Y10197D1*
X6281D1*
X6312Y10229D1*
X6500Y10187D2*
Y10188D1*
X4250Y4250D2*
D14*
X4063D1*
X4250Y5250D2*
X3990D1*
Y5000D1*
X15252Y10316D2*
X14360D1*
X14107Y10062D1*
X15481Y7526D2*
Y7856D1*
X15689Y8063D1*
X16189D1*
X16314Y8188D1*
Y8480D1*
X16294Y8500D1*
X1500Y10215D2*
X776D1*
X562Y10001D1*
Y9438D1*
X5548Y3215D2*
X6009D1*
X6411Y2813D1*
X6689D1*
X16283Y12601D2*
X16735D1*
X16821Y12688D1*
X17812D1*
X18053Y12447D1*
X18312D1*
X14000Y12601D2*
X12664D1*
X12250Y12188D1*
Y11768D1*
X12232Y11750D1*
X17938Y2750D2*
X20643D1*
X14000Y12345D2*
D19*
X13095D1*
X12937Y12188D1*
X13437Y11125D2*
X13813D1*
X14482D2*
X15942D1*
X16284Y11834D2*
X16024D1*
Y11207D1*
X15942Y11125D1*
X16283Y12345D2*
D14*
X17008D1*
Y11142D2*
X16611D1*
Y11125D1*
X16283Y13113D2*
X17324D1*
X17375Y13063D1*
X19190Y13876D2*
X18564D1*
X17751Y13063D1*
X17375D1*
X14000Y13113D2*
X12949D1*
X12937Y13125D1*
X12375D1*
X11937Y12688D1*
X10187D1*
X9625Y13250D1*
X14000Y13369D2*
X13506D1*
X13062Y13813D1*
X12956D1*
X12937Y13794D1*
X16283Y13369D2*
X16806D1*
X17187Y13750D1*
X17357D1*
X17375Y13732D1*
X19190Y15176D2*
X21551D1*
X21565Y15189D1*
X22250Y13563D2*
X22687D1*
Y15189D1*
X21565D1*
X20500Y12437D2*
D18*
Y15189D1*
X21565D1*
X7750Y13250D2*
D14*
X7875D1*
Y13813D1*
X7562Y14125D1*
X6312D1*
Y12000D2*
Y14125D1*
X8206Y10813D2*
D18*
Y12794D1*
X7750Y13250D1*
X16283Y12090D2*
D19*
X16729D1*
X17069Y11750D1*
X20500D1*
Y11768D1*
X17559Y11772D2*
D14*
Y11768D1*
X20500D1*
X8875Y10813D2*
D20*
X10456D1*
X14000Y12090D2*
D19*
X13464D1*
X12687Y11313D1*
X10625D1*
X10437Y11125D1*
Y10831D1*
X10456Y10813D1*
X6689Y3687D2*
D14*
X5548D1*
Y4160D2*
X5960D1*
X6363Y4563D1*
X6689D1*
X13373Y7563D2*
D16*
Y8334D1*
X13539Y8500D1*
D17*
X14249D1*
X14327Y8423D1*
X14562Y8187D1*
Y7438D1*
D14*
X14749Y7250D1*
X14812D1*
X15643Y9187D2*
X15000D1*
X14375Y8563D1*
Y8471D1*
X14327Y8423D1*
X13539Y8500D2*
D16*
Y9291D1*
X13456Y9375D1*
Y10044D1*
X13437Y10062D1*
X13373Y6500D2*
Y5811D1*
X13312Y5750D1*
X13814Y5123D2*
D14*
X13627D1*
X13312Y5437D1*
Y5750D1*
X15954Y6856D2*
X17894D1*
X17938Y6813D1*
X15954Y7053D2*
X16741D1*
X16750Y7063D1*
X17625D1*
X18082Y7520D1*
X18596D1*
X18563Y7486D1*
X15088Y7526D2*
Y8275D1*
X15313Y8500D1*
X15625D1*
X15678Y7526D2*
X15713D1*
X15860Y7673D1*
X16360D1*
X16875Y8188D1*
Y8750D1*
Y9003D1*
X16690Y9187D1*
X16312D1*
X16937Y7563D2*
X16813D1*
X16500Y7250D1*
X15954D1*
X17437Y8331D2*
D16*
Y7563D1*
X16937D1*
X11813Y7062D2*
D14*
Y7564D1*
X11251Y8126D1*
X10438Y7063D2*
X11143D1*
Y7062D1*
X11187Y5750D2*
Y7018D1*
X11143Y7062D1*
X21312Y2750D2*
X21617D1*
X22425Y3558D1*
X21315Y1562D2*
X22421D1*
X22425Y1558D1*
X17625Y2375D2*
X18000D1*
X18875Y1500D1*
X20584D1*
X20646Y1562D1*
X12688Y9313D2*
Y9750D1*
X12188Y10250D1*
X11125Y11750D2*
X11562D1*
X4188Y1500D2*
Y2228D1*
X4209Y2250D1*
X3357Y7875D2*
D16*
X4125D1*
D14*
Y8375D1*
X3938Y8563D1*
X13562Y4750D2*
X10938D1*
X8312Y7376D1*
X4375D1*
X4125Y7626D1*
Y7875D1*
X3375Y8875D2*
Y7894D1*
X3357Y7875D1*
X15188Y3548D2*
Y5562D1*
X15088Y5662D1*
Y6384D1*
X15250Y3000D2*
X15500Y3250D1*
Y5562D1*
X15285Y5778D1*
Y6384D1*
X17437Y9500D2*
Y9000D1*
X14125Y9375D2*
X14437D1*
X14814Y9751D1*
X17186D1*
X17437Y9500D1*
X14533Y2688D2*
X15500D1*
X15750Y2938D1*
Y5625D1*
X15481Y5894D1*
Y6384D1*
X15678D2*
Y6009D1*
X16000Y5688D1*
Y2813D1*
X15187Y2000D1*
X14125D1*
X7437Y3687D2*
X8250D1*
X7437Y2813D2*
Y2937D1*
X8250D1*
Y3000D1*
X7437Y4563D2*
Y4437D1*
X8250D1*
Y4375D1*
X3250Y1313D2*
Y2236D1*
X3265Y2250D1*
X3750Y1375D2*
Y2237D1*
X3737Y2250D1*
X8919Y4375D2*
Y3687D1*
Y3000D1*
Y4375D2*
X8938D1*
Y4625D1*
X8687Y4875D1*
X8187D1*
X7687Y5375D1*
X7357D1*
X4688Y1688D2*
Y2245D1*
X4682Y2250D1*
X6125Y5062D2*
X5590D1*
X5548Y5105D1*
X6125Y5563D2*
X5562D1*
X5548Y5577D1*
X4188Y5938D2*
Y6520D1*
X4209Y6542D1*
D58*
X19449Y12447D3*
X16377Y15125D3*
X1847Y7272D3*
X8125Y6313D3*
X13875Y1000D3*
X14375Y6750D3*
X12937Y3812D3*
X12313D3*
X14125Y7250D3*
X15187Y11688D3*
X11589Y13938D3*
X17953Y10394D3*
X7187Y10188D3*
X11589Y13938D3*
X17705Y15564D3*
D3*
X22244Y11969D3*
X12250Y5750D3*
X15375Y7000D3*
X13500Y4250D3*
X562Y9438D3*
D3*
X17938Y2750D3*
X12937Y12188D3*
X13437Y11125D3*
X17008Y12345D3*
Y11142D3*
X13814Y5123D3*
X17938Y6813D3*
X16875Y8750D3*
X17625Y2375D3*
X12688Y9313D3*
X12188Y10250D3*
X11125Y11750D3*
X4188Y1500D3*
X13562Y4750D3*
X15188Y3548D3*
X15250Y3000D3*
X17437Y9500D3*
D3*
X14533Y2688D3*
X14125Y2000D3*
X3250Y1313D3*
X3750Y1375D3*
X4688Y1688D3*
X6125Y5062D3*
Y5563D3*
X4188Y5938D3*
X21500Y13437D3*
X17375Y7563D3*
X16937D3*
X14875Y13187D3*
X6500Y10187D3*
X15438Y13187D3*
X15157Y12953D3*
Y12520D3*
X15438Y12750D3*
X14875Y12313D3*
Y12750D3*
X15438Y12313D3*
X5875Y10187D3*
X18000Y14562D3*
X7188Y10625D3*
X1250Y4250D3*
Y5250D3*
X2250Y4250D3*
Y5250D3*
X3250Y4250D3*
Y5250D3*
X4250Y4250D3*
Y5250D3*
Y3250D3*
X3250D3*
X2250D3*
X1250D3*
X16937Y4063D3*
X13500Y4250D3*
X11250Y3563D3*
Y4188D3*
X13187Y4375D3*
X2000Y16438D3*
X3000D3*
X4000D3*
X5000D3*
X6000D3*
X7000D3*
X8000D3*
X9000D3*
X10000D3*
X11000D3*
X12000D3*
X13000D3*
X14000D3*
X15000D3*
X16000D3*
X17000D3*
X18000D3*
X19000D3*
X20000D3*
X21000D3*
X22000D3*
X1000D3*
X10782Y15703D2*
D19*
X16532D1*
X10782Y15546D2*
X16532D1*
X10782Y15390D2*
X16532D1*
X10782Y15234D2*
X16532D1*
X10782Y15078D2*
X16532D1*
X10782Y14922D2*
X16532D1*
X10782Y14766D2*
X16532D1*
X10782Y14609D2*
X16532D1*
X12985Y14453D2*
X16532D1*
X13143Y14297D2*
X16532D1*
X13364Y14141D2*
X16532D1*
X13455Y13985D2*
X16532D1*
X13610Y13829D2*
X16532D1*
X13197Y14226D2*
X13349D1*
Y14076D1*
X13720Y13704D1*
X16546D1*
Y15859D1*
X10766D1*
Y14579D1*
X12815Y14578D1*
X12868Y14556D1*
X13197Y14227D1*
X18035Y14017D2*
X19908D1*
X18033Y13860D2*
X19908D1*
X17801Y13704D2*
X19908D1*
X17801Y13548D2*
X19908D1*
X17801Y13392D2*
X19908D1*
X17075Y13236D2*
X19908D1*
X16869Y13080D2*
X19908D1*
X16869Y12923D2*
X17032D1*
X17969D2*
X19908D1*
X17787Y13797D2*
Y13300D1*
X17125D1*
X17000Y13175D1*
X16937Y13128D1*
X16879Y13105D1*
X16850Y13075D1*
X16853Y12893D1*
X17007Y12892D1*
X17043Y12920D1*
X17115Y12952D1*
X17187Y12962D1*
X17812D1*
X17890Y12950D1*
X17948Y12926D1*
X18016Y12891D1*
X19923Y12893D1*
Y14173D1*
X18018D1*
Y13876D1*
X17980Y13810D1*
X17939Y13798D1*
X17784D1*
X10282Y13172D2*
X10451D1*
X11612D2*
X13263D1*
X10282Y13015D2*
X13281D1*
X10282Y12859D2*
X12555D1*
X10282Y12703D2*
X12200D1*
X10282Y12547D2*
X12045D1*
X10282Y12391D2*
X11888D1*
X10282Y12235D2*
X11844D1*
X10282Y12078D2*
X10825D1*
X10282Y11922D2*
X10670D1*
X10282Y11766D2*
X10515D1*
X11632Y13209D2*
Y13180D1*
X11605D1*
X11553Y13131D1*
X11500Y13109D1*
X10560Y13110D1*
X10507Y13132D1*
X10265Y13374D1*
X10266Y11704D1*
X10469D1*
X10947Y12181D1*
X11000Y12204D1*
X11859D1*
X11860Y12315D1*
X11882Y12368D1*
X12322Y12806D1*
X12375Y12829D1*
X12510D1*
X12591Y12866D1*
X12664Y12875D1*
X13296D1*
Y13156D1*
X13154Y13297D1*
X11718Y13296D1*
X11632Y13208D1*
X6219Y14640D2*
X8094D1*
X6219Y14484D2*
X8094D1*
X6219Y14328D2*
X8094D1*
X6219Y14172D2*
X8094D1*
X6219Y14016D2*
X8094D1*
X6219Y13859D2*
X8094D1*
X6219Y13703D2*
X8094D1*
X6219Y13547D2*
X8094D1*
X6219Y13391D2*
X8094D1*
X6219Y13235D2*
X8094D1*
X6094Y13079D2*
X8094D1*
X6094Y12922D2*
X8094D1*
X6094Y12766D2*
X8094D1*
X6094Y12610D2*
X8094D1*
X6094Y12454D2*
X8094D1*
X6094Y12298D2*
X8094D1*
X6094Y12142D2*
X8094D1*
X6094Y11985D2*
X8094D1*
X6094Y11829D2*
X8094D1*
X6829Y11673D2*
X8094D1*
X6984Y11517D2*
X8094D1*
X7141Y11361D2*
X8094D1*
X6157Y11766D2*
X6690Y11765D1*
X6743Y11743D1*
X7158Y11328D1*
X8109Y11329D1*
Y14796D1*
X6204D1*
X6203Y13248D1*
X6181Y13194D1*
X6078Y13092D1*
X6079Y11766D1*
X6157D1*
X18408Y15642D2*
X22781D1*
X18408Y15486D2*
X22781D1*
X18408Y15329D2*
X22781D1*
X18408Y15173D2*
X22781D1*
X18408Y15017D2*
X20766D1*
X22532D2*
X22781D1*
X22532Y14861D2*
X22781D1*
X22532Y14705D2*
X22781D1*
X22532Y14549D2*
X22781D1*
X22532Y14392D2*
X22781D1*
X22532Y14236D2*
X22781D1*
X22532Y14080D2*
X22781D1*
X22532Y13924D2*
X22781D1*
X22532Y13768D2*
X22781D1*
X22532Y13612D2*
X22781D1*
X22532Y13455D2*
X22781D1*
X18393Y15800D2*
X18391Y14954D1*
X20721Y14955D1*
X20886Y15120D1*
X20940Y15143D1*
X22438Y15141D1*
X22504Y15103D1*
X22516Y15063D1*
Y13391D1*
X22796D1*
Y15796D1*
X18394Y15798D1*
X5203Y14508D2*
X5383D1*
X5045Y14352D2*
X5383D1*
X4888Y14196D2*
X5386D1*
X4733Y14040D2*
X5386D1*
X4575Y13884D2*
X5388D1*
X4418Y13727D2*
X5388D1*
X4261Y13571D2*
X5388D1*
X4106Y13415D2*
X5390D1*
X4094Y13259D2*
X5390D1*
X4094Y13103D2*
X5390D1*
X4094Y12947D2*
X5393D1*
X4094Y12790D2*
X5393D1*
X4094Y12634D2*
X5393D1*
X4094Y12478D2*
X5395D1*
X4094Y12322D2*
X5395D1*
X4094Y12166D2*
X5395D1*
X4094Y12010D2*
X5398D1*
X4094Y11853D2*
X5398D1*
X4094Y11697D2*
X5400D1*
X4094Y11541D2*
X5400D1*
X4094Y11385D2*
X4598D1*
X4094Y11229D2*
X4598D1*
X4094Y11073D2*
X4598D1*
X4094Y10916D2*
X4598D1*
X4094Y10760D2*
X4598D1*
X4094Y10604D2*
X4598D1*
X4693Y11410D2*
X5419D1*
X5415Y11682D1*
X5398Y14661D1*
X5303Y14624D1*
X4077Y13403D1*
X4079Y12335D1*
Y10579D1*
X4613D1*
X4615Y11177D1*
Y11410D1*
X4693D1*
X16669Y7578D2*
X17531D1*
X16485Y7421D2*
X17531D1*
X16079Y7327D2*
X16695Y7331D1*
X16829Y7337D1*
X17510D1*
X17546Y7371D1*
Y7734D1*
X16809D1*
X16554Y7479D1*
X16491Y7432D1*
X16433Y7409D1*
X16360Y7399D1*
X16077D1*
X16079Y7325D1*
X189Y16635D2*
D14*
X23039D1*
X189Y16518D2*
X23039D1*
X189Y16402D2*
X23039D1*
X189Y16285D2*
X23039D1*
X189Y16168D2*
X23039D1*
X189Y16051D2*
X3634D1*
X16779D2*
X18252D1*
X22932D2*
X23039D1*
X189Y15934D2*
X3497D1*
X17574D2*
X18130D1*
X189Y15818D2*
X3381D1*
X17574D2*
X18121D1*
X189Y15701D2*
X3265D1*
X17574D2*
X18110D1*
X189Y15584D2*
X3147D1*
X17574D2*
X18110D1*
X189Y15467D2*
X3030D1*
X17574D2*
X18110D1*
X189Y15350D2*
X2914D1*
X17574D2*
X18110D1*
X189Y15234D2*
X2569D1*
X17574D2*
X18110D1*
X189Y15117D2*
X2403D1*
X17925D2*
X18110D1*
X189Y15000D2*
X2300D1*
X16823D2*
X16908D1*
X17925D2*
X18110D1*
X189Y14883D2*
X2229D1*
X4097D2*
X5057D1*
X5837D2*
X5922D1*
X16823D2*
X16908D1*
X17925D2*
X18110D1*
X189Y14766D2*
X2185D1*
X3980D2*
X5057D1*
X5837D2*
X5922D1*
X16823D2*
X16908D1*
X17925D2*
X18110D1*
X189Y14650D2*
X2159D1*
X3864D2*
X4948D1*
X5837D2*
X5922D1*
X16823D2*
X16908D1*
X17925D2*
X18110D1*
X189Y14533D2*
X2154D1*
X3748D2*
X4830D1*
X5837D2*
X5922D1*
X16823D2*
X16908D1*
X17925D2*
X20149D1*
X189Y14416D2*
X2165D1*
X3711D2*
X4713D1*
X5837D2*
X5922D1*
X16823D2*
X16908D1*
X189Y14299D2*
X2194D1*
X3680D2*
X4595D1*
X5837D2*
X5922D1*
X10467D2*
X11573D1*
X12551D2*
X12745D1*
X16823D2*
X16908D1*
X189Y14182D2*
X2135D1*
X3630D2*
X4479D1*
X5837D2*
X5922D1*
X16823D2*
X16908D1*
X189Y14066D2*
X2019D1*
X3552D2*
X4361D1*
X5837D2*
X5922D1*
X16819D2*
X16984D1*
X189Y13949D2*
X1901D1*
X3436D2*
X4245D1*
X5837D2*
X5922D1*
X189Y13832D2*
X1785D1*
X3237D2*
X4127D1*
X5837D2*
X5922D1*
X20852D2*
X21112D1*
X189Y13715D2*
X1668D1*
X2539D2*
X4010D1*
X5837D2*
X5922D1*
X20852D2*
X21112D1*
X189Y13598D2*
X1552D1*
X2423D2*
X3892D1*
X5837D2*
X5922D1*
X20852D2*
X21112D1*
X189Y13482D2*
X1438D1*
X2307D2*
X3811D1*
X5837D2*
X5922D1*
X20852D2*
X21109D1*
X189Y13365D2*
X1382D1*
X2190D2*
X3807D1*
X5837D2*
X5922D1*
X20852D2*
X21105D1*
X189Y13248D2*
X1375D1*
X2072D2*
X3807D1*
X5678D2*
X5854D1*
X20852D2*
X21105D1*
X189Y13131D2*
X1375D1*
X1998D2*
X3770D1*
X5680D2*
X5806D1*
X20852D2*
X21105D1*
X22900D2*
X23039D1*
X189Y13014D2*
X1375D1*
X1998D2*
X3689D1*
X5680D2*
X5806D1*
X20852D2*
X21105D1*
X21887D2*
X23039D1*
X189Y12898D2*
X1375D1*
X1998D2*
X3645D1*
X5693D2*
X5806D1*
X20852D2*
X21105D1*
X22799D2*
X23039D1*
X189Y12781D2*
X1375D1*
X1998D2*
X3626D1*
X5711D2*
X5806D1*
X20890D2*
X21105D1*
X22799D2*
X23039D1*
X189Y12664D2*
X1375D1*
X1998D2*
X3625D1*
X5706D2*
X5806D1*
X20890D2*
X21105D1*
X22799D2*
X23039D1*
X189Y12547D2*
X1375D1*
X1998D2*
X3625D1*
X5682D2*
X5806D1*
X20890D2*
X21105D1*
X22799D2*
X23039D1*
X189Y12430D2*
X1375D1*
X1998D2*
X3625D1*
X5684D2*
X5763D1*
X20890D2*
X21105D1*
X22799D2*
X23039D1*
X189Y12314D2*
X1375D1*
X1998D2*
X3625D1*
X5684D2*
X5763D1*
X20890D2*
X21105D1*
X22799D2*
X23039D1*
X189Y12197D2*
X1375D1*
X1998D2*
X3625D1*
X5684D2*
X5763D1*
X20890D2*
X21105D1*
X22799D2*
X23039D1*
X189Y12080D2*
X1375D1*
X1998D2*
X3625D1*
X5686D2*
X5763D1*
X20890D2*
X21105D1*
X22799D2*
X23039D1*
X189Y11963D2*
X1375D1*
X1998D2*
X3625D1*
X5686D2*
X5763D1*
X20890D2*
X21046D1*
X22693D2*
X23039D1*
X189Y11846D2*
X1375D1*
X1998D2*
X3625D1*
X5686D2*
X5763D1*
X14548D2*
X15736D1*
X20890D2*
X21046D1*
X22693D2*
X23039D1*
X189Y11730D2*
X1375D1*
X1998D2*
X3625D1*
X5687D2*
X5763D1*
X14548D2*
X15736D1*
X20890D2*
X21046D1*
X22693D2*
X23039D1*
X189Y11613D2*
X1375D1*
X2074D2*
X3625D1*
X5687D2*
X5763D1*
X13368D2*
X13451D1*
X14548D2*
X15736D1*
X20890D2*
X21046D1*
X22693D2*
X23039D1*
X189Y11496D2*
X1384D1*
X2192D2*
X3625D1*
X5689D2*
X6611D1*
X13250D2*
X13402D1*
X20890D2*
X21046D1*
X22693D2*
X23039D1*
X189Y11379D2*
X1440D1*
X2308D2*
X3625D1*
X5689D2*
X5763D1*
X17949D2*
X20110D1*
X20890D2*
X21046D1*
X22693D2*
X23039D1*
X189Y11262D2*
X1554D1*
X2425D2*
X3625D1*
X5689D2*
X5763D1*
X13018D2*
X13090D1*
X17949D2*
X19455D1*
X19796D2*
X21046D1*
X22693D2*
X23039D1*
X189Y11146D2*
X1670D1*
X2541D2*
X3625D1*
X5691D2*
X5764D1*
X6861D2*
X6961D1*
X12901D2*
X13064D1*
X17949D2*
X19169D1*
X20082D2*
X21046D1*
X22693D2*
X23039D1*
X189Y11029D2*
X1786D1*
X2659D2*
X3625D1*
X5691D2*
X5764D1*
X6861D2*
X7795D1*
X11536D2*
X13077D1*
X17949D2*
X19029D1*
X20222D2*
X21046D1*
X22693D2*
X23039D1*
X189Y10912D2*
X1903D1*
X2775D2*
X3625D1*
X5691D2*
X5764D1*
X6861D2*
X7795D1*
X11536D2*
X13132D1*
X17949D2*
X18935D1*
X20317D2*
X21145D1*
X21846D2*
X23039D1*
X189Y10795D2*
X1032D1*
X2892D2*
X3625D1*
X5693D2*
X5764D1*
X6861D2*
X7795D1*
X11536D2*
X13278D1*
X17949D2*
X18872D1*
X20379D2*
X21145D1*
X21846D2*
X23039D1*
X189Y10678D2*
X1032D1*
X1969D2*
X2137D1*
X2976D2*
X3625D1*
X5693D2*
X5764D1*
X6861D2*
X7795D1*
X11536D2*
X14762D1*
X15740D2*
X18829D1*
X20422D2*
X21145D1*
X21846D2*
X23039D1*
X189Y10562D2*
X1032D1*
X1969D2*
X2253D1*
X2999D2*
X3625D1*
X5693D2*
X5764D1*
X6861D2*
X7795D1*
X11536D2*
X11992D1*
X12383D2*
X14762D1*
X15740D2*
X18807D1*
X20444D2*
X21145D1*
X21846D2*
X23039D1*
X189Y10445D2*
X1032D1*
X1969D2*
X2371D1*
X2999D2*
X3625D1*
X5686D2*
X5763D1*
X6861D2*
X7795D1*
X9284D2*
X10045D1*
X11536D2*
X11870D1*
X12505D2*
X14762D1*
X15740D2*
X18802D1*
X20449D2*
X21145D1*
X21846D2*
X23039D1*
X189Y10328D2*
X1032D1*
X1969D2*
X2375D1*
X2999D2*
X3626D1*
X5567D2*
X11822D1*
X12553D2*
X13027D1*
X14516D2*
X14762D1*
X15740D2*
X18815D1*
X20436D2*
X21145D1*
X21846D2*
X23039D1*
X189Y10211D2*
X1032D1*
X1969D2*
X2375D1*
X2999D2*
X3643D1*
X5178D2*
X11817D1*
X12578D2*
X13027D1*
X14516D2*
X14762D1*
X15740D2*
X18842D1*
X20407D2*
X21145D1*
X21846D2*
X23039D1*
X189Y10094D2*
X1032D1*
X1969D2*
X2375D1*
X2999D2*
X3685D1*
X5294D2*
X11850D1*
X12695D2*
X13027D1*
X14516D2*
X14762D1*
X15740D2*
X18892D1*
X20359D2*
X21145D1*
X21846D2*
X23039D1*
X189Y9978D2*
X1032D1*
X1969D2*
X2375D1*
X2999D2*
X3763D1*
X5412D2*
X11938D1*
X12813D2*
X13027D1*
X14516D2*
X14720D1*
X17279D2*
X18966D1*
X20285D2*
X21145D1*
X21846D2*
X23039D1*
X189Y9861D2*
X1032D1*
X1969D2*
X2375D1*
X3766D2*
X3877D1*
X11813D2*
X12224D1*
X12912D2*
X13027D1*
X17471D2*
X19073D1*
X20178D2*
X21145D1*
X21846D2*
X23039D1*
X189Y9744D2*
X1032D1*
X1969D2*
X2375D1*
X3766D2*
X3994D1*
X12017D2*
X12341D1*
X12940D2*
X13027D1*
X17716D2*
X18449D1*
X18676D2*
X19243D1*
X20006D2*
X21145D1*
X21846D2*
X23039D1*
X189Y9627D2*
X1032D1*
X1969D2*
X2375D1*
X3766D2*
X4112D1*
X12136D2*
X12435D1*
X12940D2*
X13046D1*
X17788D2*
X18219D1*
X18907D2*
X21145D1*
X21846D2*
X23039D1*
X189Y9510D2*
X2375D1*
X3766D2*
X4228D1*
X12252D2*
X12372D1*
X17810D2*
X18123D1*
X19003D2*
X21145D1*
X21846D2*
X23039D1*
X189Y9394D2*
X1032D1*
X1969D2*
X2375D1*
X3766D2*
X4344D1*
X17827D2*
X18073D1*
X19052D2*
X21145D1*
X21846D2*
X23039D1*
X189Y9277D2*
X1032D1*
X1969D2*
X2375D1*
X3766D2*
X4461D1*
X17827D2*
X18054D1*
X19071D2*
X21145D1*
X21846D2*
X23039D1*
X189Y9160D2*
X1032D1*
X1969D2*
X2375D1*
X3766D2*
X4579D1*
X17827D2*
X18064D1*
X19062D2*
X21145D1*
X21846D2*
X23039D1*
X189Y9043D2*
X1032D1*
X1969D2*
X2375D1*
X3766D2*
X4695D1*
X12940D2*
X13046D1*
X17827D2*
X18102D1*
X19023D2*
X21145D1*
X21846D2*
X23039D1*
X189Y8927D2*
X1032D1*
X1969D2*
X2375D1*
X3766D2*
X4811D1*
X12946D2*
X13030D1*
X17827D2*
X18180D1*
X18943D2*
X21145D1*
X21846D2*
X23039D1*
X189Y8810D2*
X1032D1*
X1969D2*
X2375D1*
X4250D2*
X4492D1*
X12946D2*
X13030D1*
X17827D2*
X18337D1*
X18788D2*
X21145D1*
X21846D2*
X23039D1*
X189Y8693D2*
X1032D1*
X2035D2*
X2375D1*
X4250D2*
X4492D1*
X5115D2*
X11418D1*
X17827D2*
X18285D1*
X18840D2*
X21145D1*
X21846D2*
X23039D1*
X189Y8576D2*
X1032D1*
X2116D2*
X2375D1*
X4276D2*
X4492D1*
X5115D2*
X6083D1*
X6420D2*
X7083D1*
X7420D2*
X8081D1*
X8421D2*
X9082D1*
X9421D2*
X10082D1*
X10421D2*
X10763D1*
X17827D2*
X18156D1*
X18967D2*
X21145D1*
X21846D2*
X23039D1*
X189Y8459D2*
X1032D1*
X2128D2*
X2375D1*
X2999D2*
X3123D1*
X4362D2*
X4492D1*
X5115D2*
X5898D1*
X6605D2*
X6898D1*
X7605D2*
X7899D1*
X8603D2*
X8899D1*
X9604D2*
X9899D1*
X10604D2*
X10763D1*
X17827D2*
X18089D1*
X19036D2*
X21145D1*
X21846D2*
X23039D1*
X189Y8343D2*
X1032D1*
X2128D2*
X2375D1*
X2999D2*
X3123D1*
X4377D2*
X4492D1*
X5115D2*
X5815D1*
X6688D2*
X6815D1*
X7688D2*
X7814D1*
X8688D2*
X8814D1*
X9688D2*
X9814D1*
X10689D2*
X10763D1*
X17827D2*
X18058D1*
X19067D2*
X21145D1*
X21846D2*
X23039D1*
X189Y8226D2*
X1622D1*
X2128D2*
X2277D1*
X5204D2*
X5773D1*
X11741D2*
X11887D1*
X12955D2*
X13031D1*
X17827D2*
X18056D1*
X19069D2*
X21145D1*
X21846D2*
X23039D1*
X189Y8109D2*
X795D1*
X5204D2*
X5763D1*
X11741D2*
X11929D1*
X12946D2*
X13030D1*
X15341D2*
X16443D1*
X17827D2*
X18082D1*
X19043D2*
X21145D1*
X21846D2*
X23039D1*
X189Y7992D2*
X795D1*
X5204D2*
X5782D1*
X6721D2*
X6782D1*
X7721D2*
X7782D1*
X11741D2*
X11929D1*
X12946D2*
X13030D1*
X14047D2*
X14171D1*
X15341D2*
X16327D1*
X17827D2*
X18141D1*
X18984D2*
X21145D1*
X21846D2*
X23039D1*
X189Y7875D2*
X795D1*
X5204D2*
X5834D1*
X6669D2*
X6834D1*
X7669D2*
X7834D1*
X8670D2*
X8834D1*
X10668D2*
X10763D1*
X11855D2*
X12313D1*
X12936D2*
X13060D1*
X13684D2*
X14171D1*
X15341D2*
X15718D1*
X17807D2*
X18243D1*
X18883D2*
X21145D1*
X21846D2*
X23039D1*
X189Y7759D2*
X795D1*
X5204D2*
X5935D1*
X6568D2*
X6935D1*
X7568D2*
X7936D1*
X8568D2*
X8936D1*
X10567D2*
X10763D1*
X11971D2*
X12313D1*
X12936D2*
X13060D1*
X13684D2*
X14171D1*
X17818D2*
X18040D1*
X18990D2*
X21145D1*
X21846D2*
X23039D1*
X189Y7642D2*
X795D1*
X5204D2*
X9560D1*
X10065D2*
X11383D1*
X12052D2*
X12313D1*
X12936D2*
X13060D1*
X13684D2*
X14171D1*
X19047D2*
X21145D1*
X21846D2*
X23039D1*
X189Y7525D2*
X795D1*
X8515D2*
X9560D1*
X10065D2*
X11499D1*
X12065D2*
X12313D1*
X12936D2*
X13060D1*
X13684D2*
X13878D1*
X19069D2*
X21145D1*
X21846D2*
X23039D1*
X189Y7408D2*
X795D1*
X2284D2*
X3990D1*
X8631D2*
X9358D1*
X12222D2*
X12313D1*
X12936D2*
X13060D1*
X13684D2*
X13788D1*
X19065D2*
X21145D1*
X21846D2*
X23039D1*
X189Y7291D2*
X1475D1*
X2220D2*
X4108D1*
X8749D2*
X9358D1*
X12222D2*
X12313D1*
X12936D2*
X13060D1*
X13684D2*
X13754D1*
X19032D2*
X21145D1*
X21846D2*
X23039D1*
X189Y7175D2*
X1488D1*
X2207D2*
X4232D1*
X8865D2*
X9358D1*
X12222D2*
X12313D1*
X12936D2*
X13060D1*
X13684D2*
X13760D1*
X18962D2*
X21145D1*
X21846D2*
X23039D1*
X189Y7058D2*
X1497D1*
X2198D2*
X8277D1*
X8982D2*
X9358D1*
X12222D2*
X13806D1*
X18825D2*
X21145D1*
X21846D2*
X23039D1*
X189Y6941D2*
X1024D1*
X5032D2*
X8393D1*
X9100D2*
X9358D1*
X12222D2*
X13926D1*
X19071D2*
X21145D1*
X21846D2*
X23039D1*
X5866Y6824D2*
X8511D1*
X9216D2*
X9358D1*
X12222D2*
X12313D1*
X13684D2*
X14009D1*
X19071D2*
X21145D1*
X21846D2*
X23039D1*
X5866Y6707D2*
X8628D1*
X12222D2*
X12313D1*
X13684D2*
X14004D1*
X19071D2*
X21145D1*
X21846D2*
X23039D1*
X5866Y6591D2*
X7882D1*
X8369D2*
X8744D1*
X9449D2*
X10934D1*
X11440D2*
X12313D1*
X13684D2*
X14039D1*
X16304D2*
X17641D1*
X19071D2*
X21145D1*
X21846D2*
X23039D1*
X5866Y6474D2*
X7790D1*
X8461D2*
X8862D1*
X9567D2*
X10934D1*
X11440D2*
X12313D1*
X13684D2*
X14129D1*
X16227D2*
X17800D1*
X19071D2*
X21145D1*
X21846D2*
X23039D1*
X5866Y6357D2*
X7755D1*
X8572D2*
X8978D1*
X9683D2*
X10934D1*
X11440D2*
X12313D1*
X13684D2*
X14836D1*
X15932D2*
X18054D1*
X19071D2*
X21145D1*
X21846D2*
X23039D1*
X5866Y6240D2*
X7758D1*
X8688D2*
X9095D1*
X9799D2*
X10934D1*
X11440D2*
X12313D1*
X13684D2*
X14836D1*
X15932D2*
X18054D1*
X19071D2*
X21145D1*
X21846D2*
X23039D1*
X5866Y6123D2*
X7805D1*
X8806D2*
X9213D1*
X9917D2*
X10778D1*
X13723D2*
X14836D1*
X15932D2*
X18054D1*
X19071D2*
X21145D1*
X21846D2*
X23039D1*
X1011Y6007D2*
X3820D1*
X4554D2*
X4927D1*
X5866D2*
X7921D1*
X8923D2*
X9329D1*
X10034D2*
X10778D1*
X13723D2*
X14836D1*
X16033D2*
X18054D1*
X19071D2*
X19226D1*
X20025D2*
X21145D1*
X21846D2*
X23039D1*
X189Y5890D2*
X3817D1*
X4558D2*
X5059D1*
X6291D2*
X8056D1*
X9039D2*
X9445D1*
X10150D2*
X10778D1*
X13723D2*
X14836D1*
X16149D2*
X19064D1*
X20187D2*
X21145D1*
X21846D2*
X23039D1*
X189Y5773D2*
X3853D1*
X4521D2*
X5059D1*
X6431D2*
X8174D1*
X9157D2*
X9561D1*
X10266D2*
X10778D1*
X13723D2*
X14836D1*
X16236D2*
X18959D1*
X20293D2*
X21145D1*
X21846D2*
X23039D1*
X189Y5656D2*
X3948D1*
X4427D2*
X5059D1*
X7767D2*
X8290D1*
X9273D2*
X9680D1*
X10384D2*
X10778D1*
X13723D2*
X14836D1*
X16253D2*
X18888D1*
X20363D2*
X21145D1*
X21846D2*
X23039D1*
X189Y5539D2*
X5059D1*
X7876D2*
X8406D1*
X9389D2*
X9796D1*
X10500D2*
X10778D1*
X13723D2*
X14869D1*
X16253D2*
X18840D1*
X20411D2*
X21145D1*
X21846D2*
X23039D1*
X189Y5423D2*
X5059D1*
X7992D2*
X8522D1*
X9506D2*
X9912D1*
X10617D2*
X10778D1*
X14029D2*
X14935D1*
X16253D2*
X18813D1*
X20438D2*
X21145D1*
X21846D2*
X23039D1*
X189Y5306D2*
X5059D1*
X8109D2*
X8641D1*
X9624D2*
X10030D1*
X10735D2*
X13099D1*
X14138D2*
X14935D1*
X16253D2*
X18802D1*
X20449D2*
X21145D1*
X21846D2*
X23039D1*
X189Y5189D2*
X5059D1*
X8225D2*
X8757D1*
X9740D2*
X10146D1*
X10851D2*
X13208D1*
X14182D2*
X14935D1*
X16253D2*
X18809D1*
X20442D2*
X21145D1*
X21846D2*
X23039D1*
X189Y5072D2*
X5059D1*
X9856D2*
X10263D1*
X10967D2*
X13326D1*
X14184D2*
X14935D1*
X16253D2*
X18833D1*
X20418D2*
X21145D1*
X21846D2*
X23039D1*
X189Y4955D2*
X5059D1*
X9974D2*
X10379D1*
X14147D2*
X14935D1*
X16253D2*
X18876D1*
X20376D2*
X21145D1*
X21846D2*
X23039D1*
X189Y4839D2*
X5059D1*
X10091D2*
X10497D1*
X14049D2*
X14935D1*
X16253D2*
X18942D1*
X20309D2*
X21145D1*
X21846D2*
X23039D1*
X189Y4722D2*
X5059D1*
X10207D2*
X10613D1*
X13935D2*
X14935D1*
X16253D2*
X19038D1*
X20213D2*
X21145D1*
X21846D2*
X23039D1*
X189Y4605D2*
X5059D1*
X10307D2*
X10730D1*
X13905D2*
X14935D1*
X16253D2*
X19184D1*
X20067D2*
X21145D1*
X21846D2*
X23039D1*
X189Y4488D2*
X5059D1*
X9329D2*
X9458D1*
X10347D2*
X13300D1*
X13824D2*
X14935D1*
X16253D2*
X19510D1*
X19741D2*
X21145D1*
X21846D2*
X23039D1*
X189Y4371D2*
X5059D1*
X9329D2*
X9574D1*
X10351D2*
X14935D1*
X16253D2*
X21145D1*
X21846D2*
X23039D1*
X189Y4255D2*
X5059D1*
X9329D2*
X9648D1*
X10351D2*
X14935D1*
X16253D2*
X21075D1*
X21846D2*
X23039D1*
X189Y4138D2*
X5059D1*
X9329D2*
X9648D1*
X10351D2*
X12143D1*
X12482D2*
X12767D1*
X13108D2*
X14935D1*
X16253D2*
X17455D1*
X21845D2*
X23039D1*
X189Y4021D2*
X5059D1*
X9329D2*
X9648D1*
X10351D2*
X12005D1*
X13245D2*
X14935D1*
X16253D2*
X17279D1*
X21806D2*
X22232D1*
X22618D2*
X23039D1*
X189Y3904D2*
X5059D1*
X9329D2*
X9648D1*
X10351D2*
X11951D1*
X13300D2*
X14935D1*
X16253D2*
X17163D1*
X21708D2*
X22057D1*
X22793D2*
X23039D1*
X756Y3787D2*
X5059D1*
X9329D2*
X9648D1*
X10351D2*
X11940D1*
X13309D2*
X14904D1*
X16253D2*
X17047D1*
X21592D2*
X21972D1*
X22878D2*
X23039D1*
X756Y3671D2*
X5059D1*
X9329D2*
X9648D1*
X10351D2*
X11968D1*
X13282D2*
X14836D1*
X16253D2*
X16929D1*
X21475D2*
X21930D1*
X22920D2*
X23039D1*
X756Y3554D2*
X5059D1*
X9329D2*
X9648D1*
X10351D2*
X12047D1*
X12577D2*
X12673D1*
X13202D2*
X14814D1*
X16253D2*
X16812D1*
X21355D2*
X21917D1*
X22933D2*
X23039D1*
X756Y3437D2*
X5059D1*
X9329D2*
X9648D1*
X10351D2*
X14832D1*
X16253D2*
X16696D1*
X17679D2*
X21932D1*
X22919D2*
X23039D1*
X756Y3320D2*
X5059D1*
X9329D2*
X9648D1*
X10351D2*
X14895D1*
X16253D2*
X16578D1*
X17561D2*
X21836D1*
X22872D2*
X23039D1*
X756Y3203D2*
X5059D1*
X9329D2*
X9648D1*
X10351D2*
X14939D1*
X16253D2*
X16462D1*
X17445D2*
X21718D1*
X22784D2*
X23039D1*
X756Y3087D2*
X5059D1*
X9329D2*
X9648D1*
X10404D2*
X14887D1*
X16253D2*
X16345D1*
X17329D2*
X17794D1*
X18082D2*
X20234D1*
X22594D2*
X23039D1*
X756Y2970D2*
X5059D1*
X9329D2*
X9650D1*
X10523D2*
X14295D1*
X14771D2*
X14878D1*
X17211D2*
X17639D1*
X22190D2*
X23039D1*
X756Y2853D2*
X6018D1*
X9329D2*
X9683D1*
X10639D2*
X14199D1*
X17094D2*
X17578D1*
X22073D2*
X23039D1*
X1011Y2736D2*
X4927D1*
X5866D2*
X6134D1*
X9329D2*
X9772D1*
X10755D2*
X14162D1*
X16978D2*
X17563D1*
X21955D2*
X23039D1*
X5866Y2619D2*
X6240D1*
X7887D2*
X9888D1*
X10871D2*
X14166D1*
X16862D2*
X17348D1*
X21839D2*
X23039D1*
X5866Y2503D2*
X6240D1*
X7887D2*
X10006D1*
X12826D2*
X14210D1*
X16744D2*
X17276D1*
X18226D2*
X20234D1*
X21723D2*
X23039D1*
X5866Y2386D2*
X6240D1*
X7887D2*
X10122D1*
X12981D2*
X14321D1*
X14745D2*
X15222D1*
X16627D2*
X17252D1*
X18342D2*
X20234D1*
X21723D2*
X23039D1*
X5866Y2269D2*
X10239D1*
X13097D2*
X13871D1*
X14378D2*
X15103D1*
X16511D2*
X17268D1*
X18458D2*
X23039D1*
X5866Y2152D2*
X10357D1*
X13215D2*
X13786D1*
X16393D2*
X17329D1*
X18574D2*
X23039D1*
X5866Y2035D2*
X10473D1*
X13331D2*
X13753D1*
X16277D2*
X17488D1*
X17761D2*
X17988D1*
X18692D2*
X21917D1*
X22933D2*
X23039D1*
X5866Y1919D2*
X10593D1*
X13448D2*
X13760D1*
X16160D2*
X18104D1*
X18809D2*
X20236D1*
X21725D2*
X21917D1*
X22933D2*
X23039D1*
X189Y1802D2*
X1024D1*
X5043D2*
X12582D1*
X13564D2*
X13810D1*
X16044D2*
X18220D1*
X18925D2*
X20236D1*
X22933D2*
X23039D1*
X189Y1685D2*
X2997D1*
X5062D2*
X12699D1*
X15926D2*
X18337D1*
X22933D2*
X23039D1*
X189Y1568D2*
X2982D1*
X5042D2*
X12815D1*
X15810D2*
X18455D1*
X22933D2*
X23039D1*
X189Y1451D2*
X2905D1*
X4973D2*
X12931D1*
X15694D2*
X18571D1*
X22933D2*
X23039D1*
X189Y1335D2*
X2877D1*
X4521D2*
X4597D1*
X4779D2*
X13049D1*
X15575D2*
X18687D1*
X22933D2*
X23039D1*
X189Y1218D2*
X2888D1*
X4425D2*
X13166D1*
X15459D2*
X20236D1*
X21725D2*
X21917D1*
X22933D2*
X23039D1*
X189Y1101D2*
X2945D1*
X3999D2*
X13382D1*
X15243D2*
X21917D1*
X22933D2*
X23039D1*
X189Y984D2*
X3086D1*
X3414D2*
X13502D1*
X14249D2*
X23039D1*
X189Y867D2*
X13527D1*
X14223D2*
X23039D1*
X189Y751D2*
X13601D1*
X14149D2*
X23039D1*
X189Y634D2*
X23039D1*
X189Y517D2*
X23039D1*
X189Y400D2*
X23039D1*
X189Y283D2*
X23039D1*
X11586Y14316D2*
X10526D1*
Y14417D1*
X10510Y14460D1*
X10506Y14559D1*
Y14989D1*
X10456Y14987D1*
Y13549D1*
X10526Y13481D1*
Y14207D1*
X11585D1*
Y14318D1*
X11599Y13565D2*
Y13534D1*
X11665Y13555D1*
X11666Y13564D1*
X11599D1*
X11648Y13553D1*
X11746Y13557D1*
X12560D1*
X12559Y13809D1*
Y14193D1*
X12863D1*
X12738Y14317D1*
X12541Y14318D1*
X12538Y14312D1*
X12540Y14275D1*
Y13564D1*
X11666D1*
X6614Y11503D2*
X5776D1*
Y12497D1*
X5819D1*
X5818Y13125D1*
X5828Y13183D1*
X5856Y13236D1*
X5913Y13295D1*
X5933Y13315D1*
X5934Y14731D1*
Y14937D1*
X5954D1*
X5981Y14986D1*
X5689Y14988D1*
X4192D1*
X3709Y14506D1*
X3701Y14431D1*
X3674Y14316D1*
X3630Y14207D1*
X3570Y14105D1*
X3495Y14014D1*
X3407Y13935D1*
X3308Y13871D1*
X3201Y13823D1*
X3087Y13791D1*
X2970Y13777D1*
X2852Y13781D1*
X2736Y13803D1*
X2647Y13834D1*
X1987Y13174D1*
X1988Y11688D1*
X2900Y10776D1*
X2937Y10730D1*
X2965Y10678D1*
X2982Y10622D1*
X2987Y10564D1*
Y8255D1*
X3086Y8254D1*
X3134D1*
Y8478D1*
X2996Y8477D1*
X2998Y9273D1*
X2996Y9311D1*
Y9943D1*
X3754D1*
X3756Y8863D1*
X4238D1*
Y8602D1*
X4296Y8545D1*
X4332Y8499D1*
X4356Y8445D1*
X4366Y8375D1*
Y8255D1*
X4524Y8254D1*
X5193D1*
Y7617D1*
X8312D1*
X8370Y7610D1*
X8425Y7588D1*
X8482Y7546D1*
X11038Y4990D1*
X11587Y4991D1*
X13294D1*
X13349Y5042D1*
X13360Y5049D1*
X13142Y5267D1*
X13106Y5314D1*
X13082Y5369D1*
X12943Y5371D1*
X12914Y5373D1*
X12876Y5371D1*
X10789D1*
Y6129D1*
X10946D1*
X10947Y6682D1*
X10745Y6684D1*
X10039D1*
X9370D1*
Y7441D1*
X9571D1*
X9572Y7752D1*
X9560Y7762D1*
X9503Y7720D1*
X9440Y7688D1*
X9373Y7665D1*
X9304Y7652D1*
X9233Y7649D1*
X9163Y7657D1*
X9094Y7675D1*
X9029Y7703D1*
X8969Y7741D1*
X8915Y7787D1*
X8869Y7840D1*
X8831Y7900D1*
X8802Y7965D1*
X8783Y8033D1*
X8775Y8103D1*
X8777Y8174D1*
X8789Y8244D1*
X8811Y8311D1*
X8844Y8374D1*
X8885Y8431D1*
X8934Y8482D1*
X8990Y8525D1*
X9052Y8559D1*
X9119Y8584D1*
X9188Y8599D1*
X9259Y8603D1*
X9329Y8597D1*
X9398Y8580D1*
X9463Y8553D1*
X9524Y8517D1*
X9579Y8472D1*
X9627Y8420D1*
X9666Y8361D1*
X9697Y8297D1*
X9717Y8229D1*
X9727Y8159D1*
X9726Y8079D1*
X9714Y8009D1*
X9707Y7985D1*
X9779Y8057D1*
X9775Y8162D1*
X9784Y8221D1*
X9799Y8278D1*
X9821Y8332D1*
X9850Y8384D1*
X9885Y8431D1*
X9925Y8474D1*
X9971Y8512D1*
X10021Y8544D1*
X10074Y8569D1*
X10130Y8587D1*
X10188Y8599D1*
X10247Y8603D1*
X10306Y8600D1*
X10364Y8589D1*
X10420Y8572D1*
X10474Y8548D1*
X10524Y8517D1*
X10571Y8480D1*
X10612Y8438D1*
X10648Y8391D1*
X10677Y8340D1*
X10701Y8286D1*
X10717Y8229D1*
X10728Y8126D1*
X10725Y8067D1*
X10714Y8009D1*
X10696Y7953D1*
X10671Y7899D1*
X10640Y7849D1*
X10603Y7803D1*
X10560Y7762D1*
X10513Y7727D1*
X10462Y7698D1*
X10407Y7675D1*
X10350Y7659D1*
X10292Y7650D1*
X10233Y7649D1*
X10174Y7655D1*
X10084Y7680D1*
X10054Y7651D1*
X10053Y7442D1*
X10167Y7439D1*
X10216Y7441D1*
X10836Y7439D1*
X11099Y7441D1*
X11542Y7439D1*
X11571Y7441D1*
X11559Y7478D1*
X11388Y7649D1*
X10774D1*
Y8603D1*
X11522D1*
X11384Y8739D1*
X10620Y8738D1*
X5251D1*
X5192Y8741D1*
X5104Y8756D1*
Y8263D1*
X4504D1*
Y8863D1*
X4893D1*
X4844Y8906D1*
X3766Y9988D1*
X3731Y10036D1*
X3701Y10087D1*
X3677Y10141D1*
X3658Y10197D1*
X3645Y10254D1*
X3637Y10351D1*
Y12750D1*
X3640Y12809D1*
X3649Y12867D1*
X3664Y12924D1*
X3685Y12980D1*
X3711Y13033D1*
X3743Y13082D1*
X3767Y13115D1*
X3808Y13160D1*
X3818Y13217D1*
Y13437D1*
X3828Y13496D1*
X3856Y13549D1*
X3913Y13608D1*
X5068Y14758D1*
Y14937D1*
X5825D1*
Y13313D1*
X5664D1*
X5668Y13032D1*
X5669Y12937D1*
X5684Y12885D1*
X5695Y12827D1*
X5700Y12768D1*
X5699Y12709D1*
X5692Y12651D1*
X5671Y12571D1*
X5682Y10502D1*
X5673Y10444D1*
X5646Y10392D1*
X5604Y10351D1*
X5540Y10324D1*
X5442Y10319D1*
X5060D1*
X5490Y9888D1*
X7258Y9889D1*
X11624D1*
X11683Y9886D1*
X11741Y9877D1*
X11798Y9862D1*
X11853Y9841D1*
X11906Y9815D1*
X11956Y9783D1*
X12031Y9720D1*
X12340Y9415D1*
X12362Y9470D1*
X12391Y9521D1*
X12447Y9582D1*
Y9650D1*
X12208Y9889D1*
X12165D1*
X12107Y9897D1*
X12051Y9915D1*
X11998Y9942D1*
X11950Y9977D1*
X11909Y10019D1*
X11875Y10067D1*
X11850Y10120D1*
X11833Y10177D1*
X11826Y10235D1*
X11828Y10294D1*
X11840Y10352D1*
X11862Y10407D1*
X11891Y10458D1*
X11929Y10503D1*
X11974Y10542D1*
X12024Y10573D1*
X12079Y10595D1*
X12136Y10608D1*
X12195Y10612D1*
X12254Y10606D1*
X12311Y10590D1*
X12364Y10566D1*
X12413Y10533D1*
X12456Y10492D1*
X12492Y10445D1*
X12520Y10393D1*
X12539Y10337D1*
X12549Y10250D1*
X12548Y10230D1*
X12858Y9920D1*
X12894Y9874D1*
X12918Y9820D1*
X12928Y9750D1*
Y9582D1*
X12956Y9555D1*
X12992Y9508D1*
X13020Y9456D1*
X13039Y9400D1*
X13049Y9313D1*
X13045Y9254D1*
X13030Y9196D1*
X13007Y9142D1*
X12975Y9093D1*
X12920Y9036D1*
X12934D1*
Y8791D1*
X12973Y8711D1*
X12991Y8655D1*
X13004Y8597D1*
X13011Y8539D1*
X13012Y8480D1*
X13007Y8421D1*
X12996Y8363D1*
X12979Y8307D1*
X12934Y8211D1*
Y7964D1*
X12925Y7962D1*
Y7165D1*
X12325D1*
Y7935D1*
X12228Y7965D1*
X11940Y7964D1*
Y8184D1*
X11729Y8395D1*
X11728Y7988D1*
X11983Y7735D1*
X12019Y7688D1*
X12043Y7635D1*
X12054Y7564D1*
Y7441D1*
X12211D1*
Y6684D1*
X11428D1*
Y6127D1*
X11586Y6129D1*
X12325D1*
Y6899D1*
X13673D1*
Y6128D1*
X13711Y6129D1*
Y5470D1*
X13763Y5481D1*
X13822Y5485D1*
X13881Y5479D1*
X13938Y5463D1*
X13991Y5439D1*
X14040Y5406D1*
X14083Y5365D1*
X14119Y5318D1*
X14147Y5266D1*
X14166Y5210D1*
X14176Y5123D1*
X14171Y5064D1*
X14157Y5007D1*
X14134Y4953D1*
X14102Y4903D1*
X14062Y4859D1*
X14016Y4823D1*
X13965Y4794D1*
X13921Y4778D1*
X13924Y4750D1*
X13920Y4691D1*
X13905Y4634D1*
X13882Y4580D1*
X13850Y4530D1*
X13810Y4486D1*
X13764Y4450D1*
X13713Y4421D1*
X13657Y4401D1*
X13599Y4390D1*
X13540Y4389D1*
X13482Y4397D1*
X13426Y4415D1*
X13373Y4442D1*
X13325Y4477D1*
X13293Y4510D1*
X10938Y4509D1*
X10879Y4516D1*
X10824Y4537D1*
X10767Y4580D1*
X8211Y7136D1*
X7662Y7135D1*
X4375D1*
X4317Y7142D1*
X4262Y7163D1*
X4205Y7205D1*
X3938Y7474D1*
X3874Y7496D1*
X3727Y7498D1*
X3401Y7496D1*
X2958Y7498D1*
X2909Y7496D1*
X2289D1*
Y8254D1*
X2387D1*
Y10438D1*
X1475Y11352D1*
X1438Y11397D1*
X1410Y11449D1*
X1393Y11506D1*
X1388Y11564D1*
Y13299D1*
X1393Y13358D1*
X1410Y13414D1*
X1438Y13466D1*
X1475Y13511D1*
X2223Y14259D1*
X2186Y14368D1*
X2168Y14484D1*
X2167Y14602D1*
X2184Y14719D1*
X2219Y14832D1*
X2270Y14938D1*
X2337Y15035D1*
X2418Y15121D1*
X2512Y15193D1*
X2615Y15251D1*
X2725Y15292D1*
X2841Y15315D1*
X2894Y15320D1*
X3546Y15971D1*
X3590Y16011D1*
X3637Y16045D1*
X3688Y16075D1*
X3742Y16100D1*
X3798Y16118D1*
X3855Y16131D1*
X3953Y16140D1*
X13189D1*
X13248Y16137D1*
X13345Y16119D1*
X16625D1*
X16683Y16110D1*
X16744Y16075D1*
X16781Y16041D1*
X17563D1*
Y15162D1*
X17913Y15163D1*
Y14432D1*
X18176Y14433D1*
X20002D1*
X20071Y14420D1*
X20161Y14413D1*
Y14639D1*
X18122D1*
Y15712D1*
X18131D1*
X18133Y15877D1*
X18142Y15935D1*
X18170Y15987D1*
X18213Y16027D1*
X18275Y16054D1*
X18374Y16058D1*
X22875Y16057D1*
X22933Y16047D1*
X22985Y16020D1*
X23025Y15977D1*
X23050Y15922D1*
X23051Y16752D1*
X177D1*
X178Y6865D1*
X999D1*
Y5950D1*
X177D1*
Y3902D1*
X705Y3903D1*
X745D1*
Y2780D1*
X999D1*
Y1865D1*
X177D1*
Y177D1*
X23051D1*
Y13267D1*
X23020Y13203D1*
X22977Y13162D1*
X22915Y13135D1*
X22816Y13131D1*
X22785D1*
X22786Y13066D1*
X21876D1*
X21875Y12956D1*
X21997Y12957D1*
X22786D1*
Y11963D1*
X22682Y11961D1*
Y11019D1*
X21836D1*
X21835Y4184D1*
X21830Y4125D1*
X21815Y4068D1*
X21790Y4014D1*
X21736Y3944D1*
X21365Y3573D1*
X21320Y3535D1*
X21269Y3505D1*
X21213Y3485D1*
X21125Y3473D1*
X17702D1*
X16884Y2654D1*
X15427Y1198D1*
X15382Y1160D1*
X15331Y1130D1*
X15276Y1110D1*
X15188Y1098D1*
X14222D1*
X14236Y1029D1*
X14232Y941D1*
X14218Y884D1*
X14194Y830D1*
X14162Y780D1*
X14123Y736D1*
X14077Y700D1*
X14025Y671D1*
X13970Y651D1*
X13912Y640D1*
X13853Y639D1*
X13794Y647D1*
X13738Y665D1*
X13686Y692D1*
X13638Y727D1*
X13597Y769D1*
X13563Y817D1*
X13537Y870D1*
X13521Y927D1*
X13513Y985D1*
X13516Y1044D1*
X13527Y1097D1*
X13437Y1098D1*
X13379Y1103D1*
X13322Y1118D1*
X13268Y1143D1*
X13198Y1198D1*
X12546Y1849D1*
X10813Y1848D1*
X10754Y1853D1*
X10697Y1868D1*
X10643Y1893D1*
X10573Y1948D1*
X9760Y2760D1*
X9722Y2805D1*
X9693Y2856D1*
X9672Y2912D1*
X9661Y3000D1*
Y4297D1*
X9318Y4640D1*
X9316Y3996D1*
X9317Y3594D1*
X9318Y2621D1*
X8521Y2623D1*
X8471Y2621D1*
X7874D1*
X7875Y2335D1*
X6999Y2337D1*
X6950Y2335D1*
X6251D1*
X6249Y2634D1*
X6007Y2876D1*
X5071Y2875D1*
X5073Y3554D1*
X5071Y3525D1*
X5073Y4027D1*
X5071Y3997D1*
X5073Y4499D1*
X5071Y4470D1*
X5073Y4971D1*
X5071Y4942D1*
X5073Y5444D1*
X5071Y5415D1*
Y5916D1*
X6025D1*
Y5911D1*
X6074Y5921D1*
X6133Y5924D1*
X6191Y5918D1*
X6248Y5903D1*
X6302Y5878D1*
X6351Y5845D1*
X6394Y5805D1*
X6432Y5753D1*
X7086Y5754D1*
X7755D1*
Y5608D1*
X7821Y5576D1*
X7900Y5504D1*
X8287Y5116D1*
X8687D1*
X8746Y5109D1*
X8801Y5088D1*
X8858Y5045D1*
X9124Y4777D1*
X9134Y4824D1*
X7974Y5984D1*
X7936Y6004D1*
X7888Y6039D1*
X7847Y6081D1*
X7813Y6130D1*
X7787Y6183D1*
X7771Y6239D1*
X7763Y6298D1*
X7766Y6357D1*
X7778Y6415D1*
X7799Y6470D1*
X7829Y6521D1*
X7867Y6566D1*
X7911Y6604D1*
X7962Y6635D1*
X8016Y6658D1*
X8074Y6671D1*
X8133Y6674D1*
X8191Y6668D1*
X8248Y6653D1*
X8302Y6628D1*
X8351Y6595D1*
X8394Y6555D1*
X8430Y6508D1*
X8453Y6464D1*
X10240Y4677D1*
X10278Y4632D1*
X10307Y4581D1*
X10328Y4526D1*
X10339Y4438D1*
Y3140D1*
X10954Y2526D1*
X12687Y2527D1*
X12746Y2522D1*
X12803Y2507D1*
X12857Y2482D1*
X12927Y2427D1*
X13579Y1776D1*
X13842Y1777D1*
X13813Y1817D1*
X13787Y1870D1*
X13771Y1927D1*
X13763Y1985D1*
X13766Y2044D1*
X13778Y2102D1*
X13799Y2157D1*
X13829Y2208D1*
X13867Y2253D1*
X13911Y2292D1*
X13962Y2323D1*
X14016Y2345D1*
X14074Y2358D1*
X14133Y2362D1*
X14191Y2356D1*
X14248Y2340D1*
X14302Y2316D1*
X14351Y2283D1*
X14395Y2241D1*
X15086D1*
X15292Y2446D1*
X14804Y2447D1*
X14735Y2387D1*
X14683Y2358D1*
X14628Y2338D1*
X14570Y2328D1*
X14511Y2326D1*
X14452Y2335D1*
X14396Y2353D1*
X14344Y2379D1*
X14296Y2414D1*
X14255Y2456D1*
X14221Y2505D1*
X14195Y2558D1*
X14179Y2614D1*
X14172Y2673D1*
X14174Y2732D1*
X14186Y2790D1*
X14207Y2845D1*
X14237Y2896D1*
X14275Y2941D1*
X14319Y2979D1*
X14370Y3010D1*
X14424Y3033D1*
X14482Y3046D1*
X14541Y3049D1*
X14599Y3043D1*
X14656Y3028D1*
X14710Y3003D1*
X14759Y2970D1*
X14803Y2928D1*
X14897D1*
X14888Y2985D1*
X14891Y3044D1*
X14903Y3102D1*
X14924Y3157D1*
X14954Y3208D1*
X14986Y3246D1*
X14909Y3317D1*
X14875Y3365D1*
X14850Y3419D1*
X14833Y3475D1*
X14826Y3534D1*
X14828Y3593D1*
X14840Y3651D1*
X14862Y3706D1*
X14891Y3756D1*
X14947Y3817D1*
Y5462D1*
X14917Y5492D1*
X14881Y5538D1*
X14857Y5592D1*
X14847Y5662D1*
Y6418D1*
X14693Y6419D1*
X14635Y6429D1*
X14581Y6452D1*
X14525Y6421D1*
X14470Y6401D1*
X14412Y6390D1*
X14353Y6389D1*
X14294Y6397D1*
X14238Y6415D1*
X14186Y6442D1*
X14138Y6477D1*
X14097Y6519D1*
X14063Y6567D1*
X14037Y6620D1*
X14021Y6677D1*
X14013Y6735D1*
X14016Y6794D1*
X14028Y6852D1*
X14044Y6897D1*
X13988Y6915D1*
X13936Y6942D1*
X13888Y6977D1*
X13847Y7019D1*
X13813Y7067D1*
X13787Y7120D1*
X13771Y7177D1*
X13763Y7235D1*
X13766Y7294D1*
X13778Y7352D1*
X13799Y7407D1*
X13829Y7458D1*
X13867Y7503D1*
X13911Y7542D1*
X13962Y7573D1*
X14016Y7595D1*
X14074Y7608D1*
X14133Y7612D1*
X14182Y7607D1*
X14183Y7969D1*
Y8030D1*
X14092Y8122D1*
X14037Y8121D1*
X14036Y7964D1*
X13673Y7962D1*
Y7165D1*
X13073D1*
X13075Y7962D1*
X13043Y7964D1*
Y9036D1*
X13059D1*
X13057Y9291D1*
Y9684D1*
X13039D1*
Y10441D1*
X13836Y10439D1*
X13874Y10441D1*
X14505D1*
Y9783D1*
X14643Y9921D1*
X14690Y9958D1*
X14766Y9987D1*
X14774Y9996D1*
Y10746D1*
X14083D1*
X13414D1*
Y10763D1*
X13357Y10772D1*
X13300Y10790D1*
X13248Y10817D1*
X13200Y10852D1*
X13159Y10894D1*
X13125Y10942D1*
X13100Y10995D1*
X13083Y11052D1*
X13076Y11111D1*
X13078Y11170D1*
X13090Y11227D1*
X13111Y11282D1*
X13141Y11333D1*
X13179Y11379D1*
X13224Y11417D1*
X13274Y11448D1*
X13329Y11470D1*
X13386Y11483D1*
X13414Y11485D1*
Y11504D1*
X14211Y11502D1*
X14261Y11504D1*
X15070Y11502D1*
X15662Y11504D1*
X15763D1*
Y11574D1*
X15747Y11573D1*
X15745Y11858D1*
X14536D1*
Y11573D1*
X13464D1*
Y11720D1*
X12872Y11128D1*
X12826Y11092D1*
X12772Y11066D1*
X12713Y11053D1*
X12687Y11052D1*
X11523Y11050D1*
Y10434D1*
X10057D1*
Y10532D1*
X9273D1*
Y10434D1*
X8476Y10436D1*
X8427Y10434D1*
X7807D1*
Y11067D1*
X7302Y11068D1*
X7125D1*
X7067Y11078D1*
X7014Y11107D1*
X6955Y11163D1*
X6849Y11269D1*
Y10401D1*
X5776D1*
Y11395D1*
X6724D1*
X6614Y11504D1*
X16811Y15087D2*
Y14090D1*
X16805D1*
X16807Y13887D1*
X16816Y13886D1*
X16936Y14005D1*
X16985Y14040D1*
X16972Y14033D1*
X16969Y14090D1*
X16920D1*
Y15087D1*
X16813D1*
X21157Y11019D2*
X21058D1*
Y11973D1*
X21119D1*
X21117Y12323D1*
Y13437D1*
X21124Y13556D1*
Y13945D1*
X20839Y13944D1*
Y12836D1*
X20879D1*
X20877Y12039D1*
X20879Y11989D1*
Y11370D1*
X20121D1*
Y11490D1*
X17938Y11489D1*
Y10704D1*
X17180D1*
Y10824D1*
X17103Y10793D1*
X17045Y10782D1*
X17010Y10781D1*
Y10746D1*
X16213Y10748D1*
X16163Y10746D1*
X15729D1*
Y9992D1*
X17186D1*
X17245Y9985D1*
X17300Y9964D1*
X17357Y9921D1*
X17418Y9860D1*
X17504Y9855D1*
X17561Y9840D1*
X17614Y9815D1*
X17663Y9783D1*
X17706Y9742D1*
X17742Y9695D1*
X17770Y9643D1*
X17788Y9587D1*
X17799Y9500D1*
X17794Y9441D1*
X17784Y9400D1*
X17816Y9398D1*
X17814Y8602D1*
X17816Y8552D1*
Y7932D1*
X17763D1*
X17775Y7915D1*
X17803Y7852D1*
X17807Y7753D1*
Y7585D1*
X17912Y7690D1*
X17958Y7726D1*
X18012Y7750D1*
X18082Y7761D1*
X18147D1*
X18210Y7836D1*
X18261Y7881D1*
X18204Y7930D1*
X18166Y7975D1*
X18133Y8024D1*
X18106Y8077D1*
X18086Y8132D1*
X18073Y8190D1*
X18066Y8248D1*
X18067Y8307D1*
X18074Y8366D1*
X18089Y8423D1*
X18110Y8478D1*
X18137Y8530D1*
X18171Y8579D1*
X18210Y8623D1*
X18254Y8663D1*
X18302Y8697D1*
X18354Y8725D1*
X18409Y8746D1*
X18497Y8765D1*
X18424Y8781D1*
X18346Y8810D1*
X18275Y8852D1*
X18212Y8906D1*
X18159Y8968D1*
X18116Y9039D1*
X18086Y9116D1*
X18069Y9197D1*
X18066Y9280D1*
X18077Y9362D1*
X18100Y9441D1*
X18137Y9515D1*
X18186Y9582D1*
X18244Y9640D1*
X18312Y9687D1*
X18386Y9722D1*
X18466Y9745D1*
X18548Y9755D1*
X18630Y9750D1*
X18711Y9732D1*
X18787Y9701D1*
X18858Y9658D1*
X18920Y9603D1*
X18972Y9539D1*
X19013Y9467D1*
X19041Y9390D1*
X19057Y9309D1*
X19059Y9234D1*
X19048Y9152D1*
X19024Y9073D1*
X18987Y9000D1*
X18938Y8933D1*
X18879Y8875D1*
X18811Y8828D1*
X18737Y8793D1*
X18657Y8770D1*
X18630Y8766D1*
X18700Y8751D1*
X18755Y8732D1*
X18808Y8705D1*
X18858Y8673D1*
X18903Y8635D1*
X18944Y8592D1*
X18979Y8545D1*
X19008Y8494D1*
X19031Y8439D1*
X19047Y8383D1*
X19057Y8324D1*
X19059Y8274D1*
X19056Y8215D1*
X19045Y8157D1*
X19028Y8100D1*
X19004Y8046D1*
X18974Y7995D1*
X18938Y7949D1*
X18864Y7880D1*
X18903Y7848D1*
X18944Y7805D1*
X18979Y7758D1*
X19008Y7706D1*
X19031Y7652D1*
X19047Y7595D1*
X19057Y7537D1*
X19059Y7486D1*
X19056Y7427D1*
X19045Y7369D1*
X19028Y7313D1*
X19004Y7259D1*
X18974Y7208D1*
X18938Y7161D1*
X18897Y7119D1*
X18851Y7082D1*
X18801Y7050D1*
X18748Y7025D1*
X18654Y6999D1*
X19059D1*
Y6005D1*
X18066D1*
Y6476D1*
X18032Y6463D1*
X17974Y6453D1*
X17915Y6451D1*
X17857Y6460D1*
X17801Y6478D1*
X17748Y6504D1*
X17700Y6539D1*
X17659Y6581D1*
X17635Y6616D1*
X16297D1*
X16296Y6601D1*
X16275Y6546D1*
X16241Y6498D1*
X16196Y6459D1*
X16144Y6433D1*
X16086Y6420D1*
X16003Y6419D1*
X15920D1*
X15919Y6109D1*
X16170Y5858D1*
X16207Y5811D1*
X16231Y5758D1*
X16241Y5688D1*
X16242Y2972D1*
X17323Y4052D1*
X17368Y4090D1*
X17419Y4120D1*
X17474Y4140D1*
X17563Y4152D1*
X20986D1*
X21158Y4325D1*
X21157Y5306D1*
Y11017D1*
X1536Y8129D2*
X1604Y8128D1*
X1634Y8163D1*
Y8250D1*
X1043Y8251D1*
Y9501D1*
X1958D1*
Y8761D1*
X2045Y8671D1*
X2082Y8625D1*
X2106Y8571D1*
X2116Y8501D1*
Y8130D1*
X2273Y8129D1*
Y7371D1*
X2194D1*
X2208Y7301D1*
X2204Y7213D1*
X2186Y7148D1*
X2187Y7017D1*
X2453Y7019D1*
X2659Y7017D1*
X2630Y7019D1*
X3131Y7017D1*
X3102Y7019D1*
X3604Y7017D1*
X3575Y7019D1*
X4076Y7017D1*
X4047Y7019D1*
X4549Y7017D1*
X4520Y7019D1*
X5021D1*
X5023Y6865D1*
X5855D1*
Y5950D1*
X4940D1*
Y6064D1*
X4525D1*
X4539Y6025D1*
X4549Y5938D1*
X4545Y5879D1*
X4530Y5821D1*
X4507Y5767D1*
X4475Y5718D1*
X4435Y5674D1*
X4389Y5637D1*
X4338Y5608D1*
X4282Y5588D1*
X4224Y5578D1*
X4165Y5576D1*
X4107Y5585D1*
X4051Y5603D1*
X3998Y5629D1*
X3950Y5664D1*
X3909Y5706D1*
X3875Y5755D1*
X3850Y5808D1*
X3833Y5864D1*
X3826Y5923D1*
X3828Y5982D1*
X3840Y6040D1*
X3850Y6065D1*
X3398Y6064D1*
X2925D1*
X2453D1*
X1980D1*
X1508D1*
X1035D1*
Y7019D1*
X1510D1*
X1508Y7149D1*
X1493Y7199D1*
X1486Y7258D1*
X1488Y7316D1*
X1498Y7371D1*
X807D1*
Y8129D1*
X1604D1*
X1054Y10839D2*
X1958D1*
Y9590D1*
X1043D1*
Y10839D1*
X1054D1*
X21987Y2055D2*
X22922D1*
Y1061D1*
X21928D1*
Y1321D1*
X21714D1*
X21713Y1183D1*
X20917Y1185D1*
X20867Y1183D1*
X20247D1*
Y1259D1*
X18875D1*
X18817Y1266D1*
X18762Y1287D1*
X18705Y1330D1*
X17899Y2135D1*
X17827Y2075D1*
X17775Y2046D1*
X17720Y2026D1*
X17662Y2015D1*
X17603Y2014D1*
X17544Y2022D1*
X17488Y2040D1*
X17436Y2067D1*
X17388Y2102D1*
X17347Y2144D1*
X17313Y2192D1*
X17287Y2245D1*
X17271Y2302D1*
X17263Y2360D1*
X17266Y2419D1*
X17278Y2477D1*
X17299Y2532D1*
X17329Y2583D1*
X17367Y2628D1*
X17411Y2667D1*
X17462Y2698D1*
X17516Y2720D1*
X17576Y2735D1*
X17578Y2794D1*
X17590Y2852D1*
X17612Y2907D1*
X17641Y2958D1*
X17679Y3003D1*
X17724Y3042D1*
X17774Y3073D1*
X17829Y3095D1*
X17886Y3108D1*
X17945Y3112D1*
X18004Y3106D1*
X18061Y3090D1*
X18114Y3066D1*
X18163Y3033D1*
X18207Y2991D1*
X20246D1*
X20245Y3129D1*
X21042Y3127D1*
X21091Y3129D1*
X21656D1*
X21947Y3420D1*
X21929Y3533D1*
Y3592D1*
X21937Y3650D1*
X21951Y3707D1*
X21972Y3763D1*
X22000Y3815D1*
X22033Y3863D1*
X22072Y3908D1*
X22116Y3947D1*
X22165Y3981D1*
X22217Y4009D1*
X22271Y4031D1*
X22329Y4045D1*
X22387Y4053D1*
X22446Y4054D1*
X22505Y4049D1*
X22562Y4036D1*
X22618Y4016D1*
X22671Y3990D1*
X22720Y3958D1*
X22766Y3920D1*
X22806Y3877D1*
X22841Y3830D1*
X22871Y3778D1*
X22894Y3724D1*
X22910Y3667D1*
X22919Y3609D1*
X22922Y3558D1*
X22919Y3499D1*
X22908Y3441D1*
X22891Y3385D1*
X22867Y3331D1*
X22837Y3280D1*
X22801Y3233D1*
X22760Y3191D1*
X22714Y3154D1*
X22664Y3122D1*
X22611Y3097D1*
X22555Y3078D1*
X22497Y3066D1*
X22438Y3061D1*
X22379Y3063D1*
X22290Y3081D1*
X21787Y2580D1*
X21721Y2533D1*
X21711Y2479D1*
Y2371D1*
X20914Y2373D1*
X20864Y2371D1*
X20245D1*
Y2510D1*
X18209Y2509D1*
X18337Y2378D1*
X18976Y1740D1*
X20246Y1741D1*
X20247Y1941D1*
X21044Y1939D1*
X21094Y1941D1*
X21713D1*
Y1802D1*
X21930Y1803D1*
X21928Y2055D1*
X21987D1*
X20437Y5281D2*
X20430Y5187D1*
X20413Y5095D1*
X20384Y5005D1*
X20346Y4918D1*
X20297Y4837D1*
X20240Y4762D1*
X20174Y4695D1*
X20101Y4635D1*
X20021Y4584D1*
X19936Y4543D1*
X19847Y4512D1*
X19754Y4492D1*
X19661Y4482D1*
X19566Y4484D1*
X19472Y4496D1*
X19381Y4519D1*
X19293Y4553D1*
X19209Y4597D1*
X19131Y4650D1*
X19059Y4711D1*
X18996Y4781D1*
X18940Y4858D1*
X18895Y4940D1*
X18858Y5027D1*
X18833Y5118D1*
X18818Y5212D1*
X18814Y5306D1*
X18821Y5400D1*
X18839Y5493D1*
X18867Y5583D1*
X18906Y5669D1*
X18954Y5750D1*
X19012Y5825D1*
X19078Y5893D1*
X19151Y5952D1*
X19231Y6003D1*
X19316Y6044D1*
X19405Y6075D1*
X19497Y6095D1*
X19591Y6104D1*
X19686Y6103D1*
X19779Y6090D1*
X19871Y6067D1*
X19959Y6033D1*
X20043Y5990D1*
X20121Y5937D1*
X20192Y5875D1*
X20256Y5805D1*
X20311Y5728D1*
X20357Y5646D1*
X20393Y5558D1*
X20418Y5468D1*
X20433Y5374D1*
X20437Y5281D1*
Y10455D2*
X20430Y10361D1*
X20413Y10268D1*
X20384Y10178D1*
X20346Y10092D1*
X20297Y10010D1*
X20240Y9936D1*
X20174Y9868D1*
X20101Y9808D1*
X20021Y9758D1*
X19936Y9716D1*
X19847Y9685D1*
X19754Y9665D1*
X19661Y9655D1*
X19566Y9657D1*
X19472Y9669D1*
X19381Y9692D1*
X19293Y9726D1*
X19209Y9770D1*
X19131Y9823D1*
X19059Y9885D1*
X18996Y9954D1*
X18940Y10031D1*
X18895Y10113D1*
X18858Y10201D1*
X18833Y10292D1*
X18818Y10385D1*
X18814Y10479D1*
X18821Y10573D1*
X18839Y10666D1*
X18867Y10756D1*
X18906Y10842D1*
X18954Y10923D1*
X19012Y10998D1*
X19078Y11066D1*
X19151Y11125D1*
X19231Y11176D1*
X19316Y11217D1*
X19405Y11248D1*
X19497Y11268D1*
X19591Y11278D1*
X19686Y11276D1*
X19779Y11264D1*
X19871Y11240D1*
X19959Y11207D1*
X20043Y11163D1*
X20121Y11110D1*
X20192Y11048D1*
X20256Y10978D1*
X20311Y10901D1*
X20357Y10819D1*
X20393Y10732D1*
X20418Y10641D1*
X20433Y10547D1*
X20437Y10455D1*
X16023Y8123D2*
X15846Y8121D1*
X15327D1*
X15329Y7870D1*
X15384Y7853D1*
X15410Y7864D1*
X15468Y7875D1*
X15527Y7871D1*
X15580Y7854D1*
X15607Y7864D1*
X15665Y7875D1*
X15722Y7871D1*
X15790Y7903D1*
X15860Y7914D1*
X16261D1*
X16468Y8121D1*
X15896Y8122D1*
X8725Y8067D2*
X8714Y8009D1*
X8696Y7953D1*
X8671Y7899D1*
X8640Y7849D1*
X8603Y7803D1*
X8560Y7762D1*
X8513Y7727D1*
X8462Y7698D1*
X8407Y7675D1*
X8350Y7659D1*
X8292Y7650D1*
X8233Y7649D1*
X8174Y7655D1*
X8117Y7668D1*
X8061Y7688D1*
X8009Y7715D1*
X7960Y7748D1*
X7915Y7787D1*
X7876Y7831D1*
X7843Y7879D1*
X7815Y7932D1*
X7795Y7987D1*
X7781Y8044D1*
X7775Y8103D1*
Y8162D1*
X7784Y8221D1*
X7799Y8278D1*
X7821Y8332D1*
X7850Y8384D1*
X7885Y8431D1*
X7925Y8474D1*
X7971Y8512D1*
X8021Y8544D1*
X8074Y8569D1*
X8130Y8587D1*
X8188Y8599D1*
X8247Y8603D1*
X8306Y8600D1*
X8364Y8589D1*
X8420Y8572D1*
X8474Y8548D1*
X8524Y8517D1*
X8571Y8480D1*
X8612Y8438D1*
X8648Y8391D1*
X8677Y8340D1*
X8701Y8286D1*
X8717Y8229D1*
X8728Y8126D1*
X8725Y8067D1*
X7725D2*
X7714Y8009D1*
X7696Y7953D1*
X7671Y7899D1*
X7640Y7849D1*
X7603Y7803D1*
X7560Y7762D1*
X7513Y7727D1*
X7462Y7698D1*
X7407Y7675D1*
X7350Y7659D1*
X7292Y7650D1*
X7233Y7649D1*
X7174Y7655D1*
X7117Y7668D1*
X7061Y7688D1*
X7009Y7715D1*
X6960Y7748D1*
X6915Y7787D1*
X6876Y7831D1*
X6843Y7879D1*
X6815Y7932D1*
X6795Y7987D1*
X6781Y8044D1*
X6775Y8103D1*
Y8162D1*
X6784Y8221D1*
X6799Y8278D1*
X6821Y8332D1*
X6850Y8384D1*
X6885Y8431D1*
X6925Y8474D1*
X6971Y8512D1*
X7021Y8544D1*
X7074Y8569D1*
X7130Y8587D1*
X7188Y8599D1*
X7247Y8603D1*
X7306Y8600D1*
X7364Y8589D1*
X7420Y8572D1*
X7474Y8548D1*
X7524Y8517D1*
X7571Y8480D1*
X7612Y8438D1*
X7648Y8391D1*
X7677Y8340D1*
X7701Y8286D1*
X7717Y8229D1*
X7728Y8126D1*
X7725Y8067D1*
X6725D2*
X6714Y8009D1*
X6696Y7953D1*
X6671Y7899D1*
X6640Y7849D1*
X6603Y7803D1*
X6560Y7762D1*
X6513Y7727D1*
X6462Y7698D1*
X6407Y7675D1*
X6350Y7659D1*
X6292Y7650D1*
X6233Y7649D1*
X6174Y7655D1*
X6117Y7668D1*
X6061Y7688D1*
X6009Y7715D1*
X5960Y7748D1*
X5915Y7787D1*
X5876Y7831D1*
X5843Y7879D1*
X5815Y7932D1*
X5795Y7987D1*
X5781Y8044D1*
X5775Y8103D1*
Y8162D1*
X5784Y8221D1*
X5799Y8278D1*
X5821Y8332D1*
X5850Y8384D1*
X5885Y8431D1*
X5925Y8474D1*
X5971Y8512D1*
X6021Y8544D1*
X6074Y8569D1*
X6130Y8587D1*
X6188Y8599D1*
X6247Y8603D1*
X6306Y8600D1*
X6364Y8589D1*
X6420Y8572D1*
X6474Y8548D1*
X6524Y8517D1*
X6571Y8480D1*
X6612Y8438D1*
X6648Y8391D1*
X6677Y8340D1*
X6701Y8286D1*
X6717Y8229D1*
X6728Y8126D1*
X6725Y8067D1*
X1047Y2727D2*
X2187Y2726D1*
X2157Y2727D1*
X2659Y2726D1*
X2630Y2727D1*
X3131Y2726D1*
X3102Y2727D1*
X3604Y2726D1*
X3575Y2727D1*
X4076Y2726D1*
X4047Y2727D1*
X4549Y2726D1*
X4520Y2727D1*
X4939D1*
X4940Y2780D1*
X5855D1*
Y1865D1*
X5021D1*
Y1829D1*
X5039Y1775D1*
X5049Y1688D1*
X5045Y1629D1*
X5030Y1571D1*
X5007Y1517D1*
X4975Y1468D1*
X4935Y1424D1*
X4889Y1387D1*
X4838Y1358D1*
X4782Y1338D1*
X4724Y1328D1*
X4665Y1326D1*
X4607Y1335D1*
X4551Y1353D1*
X4523Y1367D1*
X4507Y1330D1*
X4475Y1280D1*
X4435Y1236D1*
X4389Y1200D1*
X4338Y1171D1*
X4282Y1151D1*
X4224Y1140D1*
X4165Y1139D1*
X4107Y1147D1*
X4046Y1168D1*
X3998Y1111D1*
X3952Y1075D1*
X3900Y1046D1*
X3845Y1026D1*
X3787Y1015D1*
X3728Y1014D1*
X3669Y1022D1*
X3613Y1040D1*
X3561Y1067D1*
X3532Y1087D1*
X3498Y1049D1*
X3452Y1012D1*
X3400Y983D1*
X3345Y963D1*
X3287Y953D1*
X3228Y951D1*
X3169Y960D1*
X3113Y978D1*
X3061Y1004D1*
X3013Y1039D1*
X2972Y1081D1*
X2938Y1130D1*
X2912Y1183D1*
X2896Y1239D1*
X2888Y1298D1*
X2891Y1357D1*
X2903Y1415D1*
X2924Y1470D1*
X2954Y1521D1*
X3010Y1582D1*
X3009Y1772D1*
X2925Y1775D1*
X2954Y1773D1*
X2453Y1775D1*
X2482Y1773D1*
X1980Y1775D1*
X2009Y1773D1*
X1508Y1775D1*
X1513Y1773D1*
X1035D1*
Y2727D1*
X1047D1*
X12666Y3572D2*
X12581D1*
X12560Y3549D1*
X12514Y3512D1*
X12463Y3483D1*
X12407Y3463D1*
X12349Y3453D1*
X12290Y3451D1*
X12232Y3460D1*
X12176Y3478D1*
X12123Y3504D1*
X12075Y3539D1*
X12034Y3581D1*
X12000Y3630D1*
X11975Y3683D1*
X11958Y3739D1*
X11951Y3798D1*
X11953Y3857D1*
X11965Y3915D1*
X11987Y3970D1*
X12016Y4020D1*
X12054Y4066D1*
X12099Y4104D1*
X12149Y4135D1*
X12204Y4158D1*
X12261Y4171D1*
X12320Y4174D1*
X12379Y4168D1*
X12436Y4153D1*
X12489Y4128D1*
X12538Y4095D1*
X12582Y4053D1*
X12669D1*
X12724Y4104D1*
X12774Y4135D1*
X12829Y4158D1*
X12886Y4171D1*
X12945Y4174D1*
X13004Y4168D1*
X13061Y4153D1*
X13114Y4128D1*
X13163Y4095D1*
X13206Y4055D1*
X13242Y4008D1*
X13270Y3956D1*
X13289Y3900D1*
X13299Y3812D1*
X13295Y3754D1*
X13280Y3696D1*
X13257Y3642D1*
X13225Y3593D1*
X13185Y3549D1*
X13139Y3512D1*
X13088Y3483D1*
X13032Y3463D1*
X12974Y3453D1*
X12915Y3451D1*
X12857Y3460D1*
X12801Y3478D1*
X12748Y3504D1*
X12700Y3539D1*
X12668Y3572D1*
X17417Y9860D2*
X17445Y9862D1*
X17504Y9855D1*
X17561Y9840D1*
X17614Y9815D1*
X17663Y9783D1*
X17706Y9742D1*
X17742Y9695D1*
X17770Y9643D1*
X17788Y9587D1*
X17799Y9500D1*
X17794Y9441D1*
X17784Y9400D1*
X11063Y14207D2*
D21*
Y13710D1*
X10527D2*
X11063D1*
X12062Y14002D2*
Y13565D1*
Y14002D2*
X12539D1*
X6312Y11394D2*
Y10401D1*
X5776Y10898D2*
X6848D1*
X16920Y14627D2*
X17913D1*
X17125Y16041D2*
Y15564D1*
X17562D1*
X22250Y12957D2*
Y12460D1*
X22786D1*
X22244Y11496D2*
Y11019D1*
Y11496D2*
X22682D1*
X3375Y9942D2*
Y9544D1*
X2996D2*
X3754D1*
X12643Y5750D2*
Y5372D1*
X14107Y10441D2*
Y10062D1*
X14505D1*
X1206Y8129D2*
Y7371D1*
X808Y7750D2*
X1206D1*
X14775Y10316D2*
X15729D1*
X1500Y10839D2*
Y9590D1*
X1043Y10215D2*
X1957D1*
X11857Y6129D2*
Y5371D1*
X4804Y8862D2*
Y8263D1*
X4504Y8563D2*
X5103D1*
X18563Y9754D2*
Y9258D1*
X18066D2*
X19059D1*
X19625Y6105D2*
Y4482D1*
X18814Y5293D2*
X20437D1*
X19625Y11278D2*
Y9655D1*
X18814Y10467D2*
X20437D1*
X6687Y5754D2*
Y5375D1*
X11125Y10813D2*
Y10434D1*
Y10813D2*
X11523D1*
X17559Y11102D2*
Y10704D1*
Y11102D2*
X17938D1*
X16294Y8500D2*
Y8122D1*
X4794Y8253D2*
Y7875D1*
X5193D1*
X14000Y11834D2*
Y11573D1*
Y11834D2*
X14536D1*
X15142Y12729D2*
Y11859D1*
X14812Y6660D2*
Y6419D1*
X15481Y7875D2*
Y7526D1*
X12625Y6898D2*
Y6500D1*
X12325D2*
X12625D1*
X12999Y6898D2*
Y6500D1*
X9251Y8603D2*
Y7649D1*
X8774Y8126D2*
X9728D1*
X1375Y2727D2*
Y1773D1*
X1036Y2250D2*
X1375D1*
Y7018D2*
Y6065D1*
X1036Y6542D2*
X1375D1*
X5397Y2779D2*
Y1865D1*
Y2322D2*
X5855D1*
X5397Y6864D2*
Y5950D1*
Y6407D2*
X5855D1*
X541Y2322D2*
Y1865D1*
Y2322D2*
X998D1*
X541Y6864D2*
Y5950D1*
Y6407D2*
X998D1*
D24*
X11063Y14813D3*
Y13710D3*
D25*
X12062Y14750D3*
Y14002D3*
D26*
X12937Y13125D3*
Y13794D3*
D24*
X6312Y12000D3*
Y10898D3*
D25*
X5125Y11688D3*
Y10940D3*
D27*
X16314Y14627D3*
X17417D3*
D28*
X16377Y15564D3*
X17125D3*
D26*
X17375Y13063D3*
Y13732D3*
D24*
X22250Y13563D3*
Y12460D3*
D28*
X21496Y11496D3*
X22244D3*
D26*
X3375Y8875D3*
Y9544D3*
D29*
X13312Y5750D3*
X12643D3*
X13437Y10062D3*
X14107D3*
X1875Y7750D3*
X1206D3*
D25*
X15252Y11064D3*
Y10316D3*
D30*
X1500Y8876D3*
Y10215D3*
D29*
X11187Y5750D3*
X11857D3*
D32*
X3938Y8563D3*
X4804D3*
D28*
X7437Y2813D3*
X6689D3*
X7437Y3687D3*
X6689D3*
X7437Y4563D3*
X6689D3*
D33*
X22425Y1558D3*
D34*
Y2558D3*
Y3558D3*
D33*
X18563Y6502D3*
D35*
Y7486D3*
Y8274D3*
Y9258D3*
D36*
X19625Y5293D3*
Y10467D3*
D29*
X6687Y5375D3*
X7357D3*
D37*
X9625Y13250D3*
X7750D3*
D38*
X6312Y14125D3*
X5446D3*
D39*
X19190Y13876D3*
Y15176D3*
D40*
X21565Y15189D3*
Y14323D3*
D29*
X11562Y11750D3*
X12232D3*
X13813Y11125D3*
X14482D3*
X8875Y10813D3*
X8206D3*
X11125D3*
X10456D3*
X18312Y12447D3*
X18982D3*
X15942Y11125D3*
X16611D3*
D26*
X20500Y12437D3*
Y11768D3*
X17559Y11772D3*
Y11102D3*
D27*
X12437Y8500D3*
X13539D3*
D29*
X15625D3*
X16294D3*
X16312Y9187D3*
X15643D3*
X8250Y3000D3*
X8919D3*
X10438Y7063D3*
X9768D3*
X2687Y7875D3*
X3357D3*
X4125D3*
X4794D3*
D26*
X17437Y9000D3*
Y8331D3*
D29*
X14125Y9375D3*
X13456D3*
X8250Y3687D3*
X8919D3*
X8250Y4375D3*
X8919D3*
X21312Y2750D3*
X20643D3*
X11813Y7062D3*
X11143D3*
X20646Y1562D3*
X21315D3*
D44*
X14000Y13625D3*
Y13369D3*
Y13113D3*
Y12857D3*
Y12601D3*
Y12345D3*
Y12090D3*
Y11834D3*
X16284D3*
X16283Y12090D3*
Y12345D3*
Y12601D3*
Y12857D3*
Y13113D3*
Y13369D3*
Y13625D3*
D45*
X15142Y12729D3*
D48*
X14812Y7250D3*
Y7053D3*
Y6856D3*
Y6660D3*
D49*
X15088Y6384D3*
X15285D3*
X15481D3*
X15678D3*
D48*
X15954Y6660D3*
Y6856D3*
Y7053D3*
Y7250D3*
D49*
X15678Y7526D3*
X15481D3*
X15285D3*
X15088D3*
D50*
X15383Y6955D3*
D52*
X12625Y6500D3*
X12999D3*
X13373D3*
Y7563D3*
X12625D3*
D50*
X11251Y8126D3*
D53*
X10251D3*
X9251D3*
X8251D3*
X7251D3*
X6251D3*
D54*
X1375Y2250D3*
X1847D3*
X2320D3*
X2792D3*
X3265D3*
X3737D3*
X4209D3*
X4682D3*
D55*
X5548Y3215D3*
Y3687D3*
Y4160D3*
Y4632D3*
Y5105D3*
Y5577D3*
D54*
X4682Y6542D3*
X4209D3*
X3737D3*
X3265D3*
X2792D3*
X2320D3*
X1847D3*
X1375D3*
D56*
X5397Y2322D3*
Y6407D3*
X541Y2322D3*
Y6407D3*
D57*
X2937Y12580D3*
Y14549D3*
M02*
