G04 DipTrace 2.4.0.2*
%INusbcharger-bluetooth2.GBS*%
%MOIN*%
%ADD42C,0.075*%
%ADD64C,0.1197*%
%ADD68C,0.0606*%
%ADD70R,0.0606X0.0606*%
%ADD73R,0.0646X0.0134*%
%ADD74R,0.0134X0.0646*%
%ADD77C,0.0606*%
%ADD78R,0.0409X0.0547*%
%ADD83C,0.1276*%
%ADD84C,0.0646*%
%ADD85C,0.0646*%
%ADD86R,0.0646X0.0646*%
%ADD89R,0.0449X0.0409*%
%ADD92R,0.0409X0.0449*%
%ADD93R,0.0606X0.0528*%
%FSLAX44Y44*%
G04*
G70*
G90*
G75*
G01*
%LNBotMask*%
%LPD*%
D89*
X13125Y1375D3*
X12456D3*
X17875Y5313D3*
X18544D3*
D93*
X8313Y4563D3*
Y5311D3*
D92*
X12625Y8000D3*
Y8669D3*
D89*
X15500Y4625D3*
X16169D3*
D92*
X15500Y5750D3*
Y6419D3*
D86*
X22425Y1558D3*
D85*
Y2558D3*
Y3558D3*
D86*
X18563Y6502D3*
D84*
Y7486D3*
Y8274D3*
Y9258D3*
D83*
X19625Y5293D3*
Y10467D3*
D78*
X17284Y6188D3*
X17875D3*
D42*
X3750Y2063D3*
D77*
D3*
D42*
X2688D3*
D77*
D3*
D74*
X10813Y6875D3*
X11009D3*
X11206D3*
X11403D3*
X11600D3*
X11797D3*
X11994D3*
X12191D3*
X12387D3*
X12584D3*
X12781D3*
X12978D3*
X13175D3*
X13372D3*
X13569D3*
X13765D3*
D73*
X14533Y6107D3*
Y5911D3*
Y5714D3*
Y5517D3*
Y5320D3*
Y5123D3*
Y4926D3*
Y4730D3*
Y4533D3*
Y4336D3*
Y4139D3*
Y3942D3*
Y3745D3*
Y3548D3*
Y3352D3*
Y3155D3*
D74*
X13765Y2387D3*
X13569D3*
X13372D3*
X13175D3*
X12978D3*
X12781D3*
X12584D3*
X12387D3*
X12191D3*
X11994D3*
X11797D3*
X11600D3*
X11403D3*
X11206D3*
X11009D3*
X10813D3*
D73*
X10045Y3155D3*
Y3352D3*
Y3548D3*
Y3745D3*
Y3942D3*
Y4139D3*
Y4336D3*
Y4533D3*
Y4730D3*
Y4926D3*
Y5123D3*
Y5320D3*
Y5517D3*
Y5714D3*
Y5911D3*
Y6107D3*
D70*
X11251Y8126D3*
D68*
X10251D3*
X9251D3*
X8251D3*
X7251D3*
X6251D3*
D64*
X2937Y12580D3*
Y14549D3*
G36*
X63Y16750D2*
X23125D1*
Y16062D1*
X63D1*
Y16750D1*
G37*
G36*
X0Y500D2*
X23250D1*
Y0D1*
X0D1*
Y500D1*
G37*
G36*
X13562Y16750D2*
X15688D1*
Y12063D1*
X13562D1*
Y16750D1*
G37*
M02*
