M48
INCH
T01C0.016
T02C0.0315
T03C0.0354
T04C0.0551
T05C0.0906
%
T01
X+021500Y+013437
X+022244Y+011969
X+019449Y+012447
X+017008Y+012345
X+017008Y+011142
X+017953Y+010394
X+017437Y+009500
X+016875Y+008750
X+016937Y+007563
X+017375Y+007563
X+017938Y+006813
X+015375Y+007000
X+014375Y+006750
X+014125Y+007250
X+013814Y+005123
X+013562Y+004750
X+013500Y+004250
X+013187Y+004375
X+012937Y+003812
X+012313Y+003812
X+011250Y+003563
X+011250Y+004188
X+012250Y+005750
X+012688Y+009313
X+012188Y+010250
X+013437Y+011125
X+012937Y+012188
X+011125Y+011750
X+011589Y+013938
X+012000Y+016438
X+011000Y+016438
X+010000Y+016438
X+009000Y+016438
X+008000Y+016438
X+007000Y+016438
X+006000Y+016438
X+005000Y+016438
X+004000Y+016438
X+003000Y+016438
X+002000Y+016438
X+001000Y+016438
X+000562Y+009438
X+001847Y+007272
X+002250Y+005250
X+003250Y+005250
X+004250Y+005250
X+004188Y+005938
X+004250Y+004250
X+003250Y+004250
X+002250Y+004250
X+002250Y+003250
X+003250Y+003250
X+004250Y+003250
X+004688Y+001688
X+004188Y+001500
X+003750Y+001375
X+003250Y+001313
X+001250Y+003250
X+001250Y+004250
X+001250Y+005250
X+006125Y+005062
X+006125Y+005563
X+008125Y+006313
X+007187Y+010188
X+007188Y+010625
X+006500Y+010187
X+005875Y+010187
X+014875Y+012313
X+015157Y+012520
X+015438Y+012313
X+015438Y+012750
X+015157Y+012953
X+014875Y+012750
X+014875Y+013187
X+015438Y+013187
X+015187Y+011688
X+016377Y+015125
X+016000Y+016438
X+017000Y+016438
X+018000Y+016438
X+017705Y+015564
X+018000Y+014562
X+019000Y+016438
X+020000Y+016438
X+021000Y+016438
X+022000Y+016438
X+015000Y+016438
X+014000Y+016438
X+013000Y+016438
X+016937Y+004063
X+017938Y+002750
X+017625Y+002375
X+015250Y+003000
X+015188Y+003548
X+014533Y+002688
X+014125Y+002000
X+013875Y+001000
T02
X+022425Y+001558
X+022425Y+002558
X+022425Y+003558
T03
X+018563Y+006502
X+018563Y+007486
X+018563Y+008274
X+018563Y+009258
X+011251Y+008126
X+010251Y+008126
X+009251Y+008126
X+008251Y+008126
X+007251Y+008126
X+006251Y+008126
T04
X+002937Y+012580
X+002937Y+014549
T05
X+019625Y+005293
X+019625Y+010467
T00
M30
