G04 DipTrace 2.4.0.2*
%INusbcharger-bluetooth2.GBL*%
%MOIN*%
%ADD14C,0.0118*%
%ADD16C,0.0236*%
%ADD17C,0.0394*%
%ADD18C,0.0315*%
%ADD19C,0.0157*%
%ADD21C,0.013*%
%ADD25R,0.0591X0.0512*%
%ADD26R,0.0394X0.0433*%
%ADD29R,0.0433X0.0394*%
%ADD33R,0.063X0.063*%
%ADD34C,0.063*%
%ADD35C,0.063*%
%ADD36C,0.126*%
%ADD41R,0.0394X0.0531*%
%ADD43C,0.0591*%
%ADD46R,0.0118X0.063*%
%ADD47R,0.063X0.0118*%
%ADD50R,0.0591X0.0591*%
%ADD53C,0.0591*%
%ADD57C,0.1181*%
%ADD58C,0.036*%
%FSLAX44Y44*%
G04*
G70*
G90*
G75*
G01*
%LNBottom*%
%LPD*%
X16377Y15125D2*
D16*
Y15081D1*
X18485D1*
X19449Y14117D1*
Y12447D1*
X1847Y7272D2*
D18*
X6165D1*
X6725Y6712D1*
D16*
X8125D1*
X9275D1*
X10251Y7689D1*
Y8126D1*
X12584Y6875D2*
D14*
Y7959D1*
X12625Y8000D1*
X10045Y4730D2*
X9520D1*
X9375Y4875D1*
Y6712D1*
X9275D1*
X12625Y8000D2*
X12375D1*
X11562Y8813D1*
X10500D1*
X10250Y8563D1*
Y8127D1*
X10251Y8126D1*
X8125Y6313D2*
D18*
Y6712D1*
X14533Y5714D2*
D14*
X15464D1*
X15500Y5750D1*
X14533Y4336D2*
X15211D1*
X15500Y4625D1*
Y5750D1*
X12781Y2387D2*
Y1969D1*
X13000Y1750D1*
Y1500D1*
X13125Y1375D1*
X13372Y2387D2*
Y1872D1*
X13250Y1750D1*
Y1500D1*
X13125Y1375D1*
X13500Y1000D1*
X13875D1*
X14533Y4336D2*
X14086D1*
X13375Y3625D1*
Y2390D1*
X13372Y2387D1*
X14375Y6750D2*
Y6500D1*
X12625Y4750D1*
Y4438D1*
X12937Y4125D1*
Y3812D1*
X12313D2*
Y3625D1*
X12978Y2960D1*
Y2387D1*
X14125Y7250D2*
X14062Y7187D1*
Y6500D1*
X12375Y4813D1*
Y4312D1*
X12625Y4062D1*
Y3625D1*
X13175Y3075D1*
Y2387D1*
X15187Y11688D2*
Y12563D1*
X15019Y12731D1*
X14812Y12938D1*
X11589D1*
Y13938D1*
X17953Y10394D2*
Y13938D1*
X16226D1*
X15457Y13168D1*
X15019Y12731D1*
X2937Y12580D2*
Y10437D1*
Y10312D1*
X5494D1*
Y10188D1*
X5875D1*
X7187D1*
X11589Y13938D2*
X11126D1*
X10375D1*
X7250Y10812D1*
X7187Y10750D1*
Y10188D1*
X17705Y15564D2*
X11751D1*
X11126Y14939D1*
Y13938D1*
X17705Y15564D2*
X22244D1*
Y11969D1*
X18544Y5313D2*
D18*
X19606D1*
X19625Y5293D1*
X22425Y2558D2*
D14*
X21567D1*
X21112Y3013D1*
X20630Y3495D1*
Y5293D1*
X19625D1*
X12625Y8669D2*
Y8688D1*
X12187D1*
X11625Y9250D1*
X9625D1*
X9250Y8875D1*
Y8127D1*
X9251Y8126D1*
X14533Y5320D2*
X15063D1*
Y5517D1*
X14533D1*
X12387Y6875D2*
Y5887D1*
X12250Y5750D1*
X14533Y5517D2*
X13704D1*
X13187Y5000D1*
Y4562D1*
X13312Y4437D1*
X13375Y4375D1*
X13750D1*
X13908Y4533D1*
X14533D1*
X12191Y2387D2*
Y1640D1*
X12456Y1375D1*
X15500Y6419D2*
X15875D1*
Y5232D1*
X16187D1*
Y4607D1*
X16169Y4625D1*
X12456Y1375D2*
Y794D1*
X12750Y500D1*
X18599D1*
X21112Y3013D1*
X15500Y6419D2*
Y6875D1*
X15375Y7000D1*
X14533Y4533D2*
X14970D1*
X15071Y4633D1*
Y4926D1*
Y5320D1*
X14533Y4926D2*
X15071D1*
X13375Y4375D2*
Y4250D1*
X13500D1*
X8313Y5311D2*
X7689D1*
X6750Y6250D1*
X5188D1*
X4875Y6563D1*
X625D1*
X562Y6500D1*
Y9438D1*
X1125D1*
X2124Y10437D1*
X2937D1*
X15438Y13187D2*
X15457Y13168D1*
X5875Y10187D2*
Y10188D1*
X7188Y10625D2*
X7250Y10812D1*
X13500Y4250D2*
X13375Y4375D1*
X13500Y4250D2*
D3*
X16937Y4063D2*
Y4438D1*
X16750Y4625D1*
X16169D1*
X13187Y4375D2*
X13250Y4437D1*
X13312D1*
X14533Y4139D2*
X15799D1*
X17188Y2750D1*
X17938D1*
X12937Y12188D2*
D19*
Y11625D1*
X13437Y11125D1*
X17008Y12345D2*
D14*
Y11142D1*
X14533Y5123D2*
X13814D1*
X17875Y6188D2*
D17*
X18248D1*
X18563Y6502D1*
X17875Y5313D2*
D18*
Y6188D1*
X17938Y6813D2*
D14*
Y7662D1*
X18437Y8162D1*
Y8149D1*
X18563Y8274D1*
X14533Y3745D2*
X13870D1*
X13750Y3625D1*
Y3125D1*
X14125Y2750D1*
Y2500D1*
X14750Y1875D1*
X17687D1*
X18312Y2500D1*
Y3688D1*
X16125Y5875D1*
Y8000D1*
X16875Y8750D1*
X17284Y6188D2*
D17*
X16937D1*
Y7563D1*
X11994Y6875D2*
D14*
Y7383D1*
X11251Y8126D1*
X10045Y4533D2*
X8342D1*
X8313Y4563D1*
X13765Y6875D2*
Y9110D1*
X13000Y9875D1*
X8250D1*
X6750Y8375D1*
Y7875D1*
X7000Y7625D1*
X7750D1*
X8251Y8126D1*
X7251D2*
X8750Y9625D1*
X12875D1*
X13562Y8938D1*
Y6881D1*
X13569Y6875D1*
X14533Y3942D2*
X15600D1*
X17167Y2375D1*
X17625D1*
X12978Y6875D2*
Y7478D1*
X13062Y7563D1*
Y8938D1*
X12688Y9313D1*
X12188Y10250D2*
Y10312D1*
X11125Y11375D1*
Y11750D1*
X11403Y2387D2*
Y1778D1*
X10938Y1313D1*
X4375D1*
X4188Y1500D1*
X14533Y4730D2*
X13583D1*
X13562Y4750D1*
X14533Y3548D2*
X15188D1*
X14533Y3352D2*
X14898D1*
X15250Y3000D1*
X13569Y2387D2*
Y1806D1*
X13750Y1625D1*
X17812D1*
X18562Y2375D1*
Y3813D1*
X16375Y6000D1*
Y7625D1*
X17500Y8750D1*
Y9437D1*
X17437Y9500D1*
X14533Y3155D2*
Y2688D1*
X14125Y2000D2*
Y2125D1*
X13814Y2436D1*
X13765Y2387D1*
X11994D2*
Y1619D1*
X11187Y812D1*
X3750D1*
X3250Y1313D1*
X2688Y2063D2*
Y1875D1*
X3250Y1313D1*
X11797Y2387D2*
Y1797D1*
X11063Y1063D1*
X4062D1*
X3750Y1375D1*
Y2063D2*
Y1375D1*
X11206Y2387D2*
Y1956D1*
X10812Y1562D1*
X4813D1*
X4688Y1688D1*
X10045Y3155D2*
X7470D1*
X6125Y4500D1*
Y5062D1*
X10045Y3352D2*
X7648D1*
X6438Y4562D1*
Y5250D1*
X6125Y5563D1*
X10045Y3548D2*
X7764D1*
X6688Y4625D1*
Y5688D1*
X6438Y5938D1*
X5813D1*
X5625Y5750D1*
X4375D1*
X4188Y5938D1*
D58*
X19449Y12447D3*
X16377Y15125D3*
X1847Y7272D3*
X8125Y6313D3*
X13875Y1000D3*
X14375Y6750D3*
X12937Y3812D3*
X12313D3*
X14125Y7250D3*
X15187Y11688D3*
X11589Y13938D3*
X17953Y10394D3*
X7187Y10188D3*
X11589Y13938D3*
X17705Y15564D3*
D3*
X22244Y11969D3*
X12250Y5750D3*
X15375Y7000D3*
X13500Y4250D3*
X562Y9438D3*
D3*
X17938Y2750D3*
X12937Y12188D3*
X13437Y11125D3*
X17008Y12345D3*
Y11142D3*
X13814Y5123D3*
X17938Y6813D3*
X16875Y8750D3*
X17625Y2375D3*
X12688Y9313D3*
X12188Y10250D3*
X11125Y11750D3*
X4188Y1500D3*
X13562Y4750D3*
X15188Y3548D3*
X15250Y3000D3*
X17437Y9500D3*
D3*
X14533Y2688D3*
X14125Y2000D3*
X3250Y1313D3*
X3750Y1375D3*
X4688Y1688D3*
X6125Y5062D3*
Y5563D3*
X4188Y5938D3*
X21500Y13437D3*
X17375Y7563D3*
X16937D3*
X14875Y13187D3*
X6500Y10187D3*
X15438Y13187D3*
X15157Y12953D3*
Y12520D3*
X15438Y12750D3*
X14875Y12313D3*
Y12750D3*
X15438Y12313D3*
X5875Y10187D3*
X18000Y14562D3*
X7188Y10625D3*
X1250Y4250D3*
Y5250D3*
X2250Y4250D3*
Y5250D3*
X3250Y4250D3*
Y5250D3*
X4250Y4250D3*
Y5250D3*
Y3250D3*
X3250D3*
X2250D3*
X1250D3*
X16937Y4063D3*
X13500Y4250D3*
X11250Y3563D3*
Y4188D3*
X13187Y4375D3*
X2000Y16438D3*
X3000D3*
X4000D3*
X5000D3*
X6000D3*
X7000D3*
X8000D3*
X9000D3*
X10000D3*
X11000D3*
X12000D3*
X13000D3*
X14000D3*
X15000D3*
X16000D3*
X17000D3*
X18000D3*
X19000D3*
X20000D3*
X21000D3*
X22000D3*
X1000D3*
X16782Y7578D2*
D19*
X17655D1*
X16782Y7421D2*
X17655D1*
X16782Y7265D2*
X17576D1*
X16782Y7109D2*
X17419D1*
X16782Y6953D2*
X17406D1*
X16782Y6797D2*
X17406D1*
X16782Y6641D2*
X17406D1*
X16782Y6484D2*
X17406D1*
X16782Y6328D2*
X17406D1*
X16830Y6172D2*
X17406D1*
X16985Y6016D2*
X17406D1*
X16871Y7733D2*
X16766Y7629D1*
Y6220D1*
X17033Y5953D1*
X17421Y5954D1*
X17422Y7065D1*
X17444Y7118D1*
X17671Y7345D1*
Y7734D1*
X16872D1*
X189Y16635D2*
D14*
X23039D1*
X189Y16518D2*
X23039D1*
X189Y16402D2*
X23039D1*
X189Y16285D2*
X23039D1*
X189Y16168D2*
X23039D1*
X189Y16051D2*
X23039D1*
X189Y15934D2*
X23039D1*
X189Y15818D2*
X23039D1*
X189Y15701D2*
X23039D1*
X189Y15584D2*
X23039D1*
X189Y15467D2*
X16248D1*
X16506D2*
X23039D1*
X189Y15350D2*
X16082D1*
X18628D2*
X23039D1*
X189Y15234D2*
X2569D1*
X3307D2*
X16021D1*
X18768D2*
X23039D1*
X189Y15117D2*
X2403D1*
X3473D2*
X16004D1*
X18884D2*
X23039D1*
X189Y15000D2*
X2300D1*
X3576D2*
X16026D1*
X19003D2*
X23039D1*
X189Y14883D2*
X2229D1*
X3645D2*
X16096D1*
X19119D2*
X23039D1*
X189Y14766D2*
X2185D1*
X3691D2*
X16318D1*
X16435D2*
X18364D1*
X19235D2*
X23039D1*
X189Y14650D2*
X2159D1*
X3715D2*
X18481D1*
X19353D2*
X23039D1*
X189Y14533D2*
X2154D1*
X3722D2*
X18597D1*
X19469D2*
X23039D1*
X189Y14416D2*
X2165D1*
X3711D2*
X18713D1*
X19586D2*
X23039D1*
X189Y14299D2*
X2194D1*
X3680D2*
X18831D1*
X19698D2*
X23039D1*
X189Y14182D2*
X2246D1*
X3630D2*
X18948D1*
X19754D2*
X23039D1*
X189Y14066D2*
X2324D1*
X3552D2*
X19064D1*
X19761D2*
X23039D1*
X189Y13949D2*
X2440D1*
X3436D2*
X19138D1*
X19761D2*
X23039D1*
X189Y13832D2*
X2637D1*
X3237D2*
X19138D1*
X19761D2*
X23039D1*
X189Y13715D2*
X19138D1*
X19761D2*
X21256D1*
X21743D2*
X23039D1*
X189Y13598D2*
X19138D1*
X19761D2*
X21164D1*
X21835D2*
X23039D1*
X189Y13482D2*
X19138D1*
X19761D2*
X21129D1*
X21870D2*
X23039D1*
X189Y13365D2*
X19138D1*
X19761D2*
X21134D1*
X21867D2*
X23039D1*
X189Y13248D2*
X19138D1*
X19761D2*
X21181D1*
X21821D2*
X23039D1*
X189Y13131D2*
X19138D1*
X19761D2*
X21295D1*
X21704D2*
X23039D1*
X189Y13014D2*
X19138D1*
X19761D2*
X23039D1*
X189Y12898D2*
X19138D1*
X19761D2*
X23039D1*
X189Y12781D2*
X19138D1*
X19761D2*
X23039D1*
X189Y12664D2*
X16825D1*
X17190D2*
X19138D1*
X19761D2*
X23039D1*
X189Y12547D2*
X12887D1*
X12988D2*
X16696D1*
X17319D2*
X19090D1*
X19809D2*
X23039D1*
X189Y12430D2*
X12658D1*
X13217D2*
X16644D1*
X17371D2*
X19075D1*
X19822D2*
X23039D1*
X189Y12314D2*
X12586D1*
X13289D2*
X16635D1*
X17380D2*
X19101D1*
X19796D2*
X23039D1*
X189Y12197D2*
X12564D1*
X13311D2*
X16667D1*
X17349D2*
X19176D1*
X19722D2*
X23039D1*
X189Y12080D2*
X10966D1*
X11285D2*
X12581D1*
X13294D2*
X16750D1*
X17266D2*
X23039D1*
X189Y11963D2*
X10822D1*
X11429D2*
X12642D1*
X13234D2*
X16755D1*
X17260D2*
X23039D1*
X189Y11846D2*
X10765D1*
X11486D2*
X12666D1*
X13210D2*
X16755D1*
X17260D2*
X23039D1*
X189Y11730D2*
X10752D1*
X11499D2*
X12666D1*
X13213D2*
X16755D1*
X17260D2*
X23039D1*
X189Y11613D2*
X10778D1*
X11471D2*
X12666D1*
X13330D2*
X16755D1*
X17260D2*
X23039D1*
X189Y11496D2*
X10855D1*
X11394D2*
X12699D1*
X13446D2*
X16755D1*
X17260D2*
X23039D1*
X189Y11379D2*
X10872D1*
X11473D2*
X12804D1*
X13706D2*
X16724D1*
X17292D2*
X23039D1*
X189Y11262D2*
X10899D1*
X11589D2*
X12920D1*
X13784D2*
X16655D1*
X17360D2*
X19455D1*
X19796D2*
X23039D1*
X189Y11146D2*
X11003D1*
X11707D2*
X13036D1*
X13809D2*
X16635D1*
X17382D2*
X19169D1*
X20082D2*
X23039D1*
X189Y11029D2*
X11119D1*
X11824D2*
X13077D1*
X13798D2*
X16652D1*
X17364D2*
X19029D1*
X20222D2*
X23039D1*
X189Y10912D2*
X11235D1*
X11940D2*
X13132D1*
X13741D2*
X16716D1*
X17299D2*
X18935D1*
X20317D2*
X23039D1*
X189Y10795D2*
X11352D1*
X12058D2*
X13278D1*
X13597D2*
X16892D1*
X17124D2*
X18872D1*
X20379D2*
X23039D1*
X189Y10678D2*
X11470D1*
X12174D2*
X18829D1*
X20422D2*
X23039D1*
X189Y10562D2*
X11586D1*
X12383D2*
X18807D1*
X20444D2*
X23039D1*
X189Y10445D2*
X11702D1*
X12505D2*
X18802D1*
X20449D2*
X23039D1*
X189Y10328D2*
X11820D1*
X12553D2*
X18815D1*
X20436D2*
X23039D1*
X189Y10211D2*
X11817D1*
X12558D2*
X18842D1*
X20407D2*
X23039D1*
X189Y10094D2*
X8139D1*
X13112D2*
X18892D1*
X20359D2*
X23039D1*
X189Y9978D2*
X8000D1*
X13250D2*
X18966D1*
X20285D2*
X23039D1*
X189Y9861D2*
X7884D1*
X13366D2*
X17405D1*
X17469D2*
X19073D1*
X20178D2*
X23039D1*
X189Y9744D2*
X7766D1*
X13483D2*
X17159D1*
X17716D2*
X18449D1*
X18676D2*
X19243D1*
X20006D2*
X23039D1*
X189Y9627D2*
X7650D1*
X13601D2*
X17087D1*
X17788D2*
X18219D1*
X18907D2*
X23039D1*
X189Y9510D2*
X7533D1*
X13717D2*
X17063D1*
X17810D2*
X18123D1*
X19003D2*
X23039D1*
X189Y9394D2*
X7417D1*
X13833D2*
X17080D1*
X17796D2*
X18073D1*
X19052D2*
X23039D1*
X189Y9277D2*
X7299D1*
X8755D2*
X12315D1*
X13950D2*
X17141D1*
X17753D2*
X18054D1*
X19071D2*
X23039D1*
X189Y9160D2*
X7183D1*
X8638D2*
X12348D1*
X14012D2*
X17248D1*
X17753D2*
X18064D1*
X19062D2*
X23039D1*
X189Y9043D2*
X7066D1*
X8520D2*
X10420D1*
X11643D2*
X12234D1*
X14018D2*
X16652D1*
X17098D2*
X17248D1*
X17753D2*
X18102D1*
X19023D2*
X23039D1*
X189Y8927D2*
X6948D1*
X8404D2*
X10261D1*
X11801D2*
X12234D1*
X14018D2*
X16548D1*
X17753D2*
X18180D1*
X18943D2*
X23039D1*
X189Y8810D2*
X6832D1*
X8288D2*
X10145D1*
X11918D2*
X12234D1*
X14018D2*
X16506D1*
X17753D2*
X18337D1*
X18788D2*
X23039D1*
X189Y8693D2*
X6716D1*
X8170D2*
X10036D1*
X12034D2*
X12234D1*
X14018D2*
X16465D1*
X17746D2*
X18285D1*
X18840D2*
X23039D1*
X189Y8576D2*
X6083D1*
X6420D2*
X6599D1*
X8421D2*
X9082D1*
X9421D2*
X9997D1*
X12152D2*
X12234D1*
X14018D2*
X16349D1*
X17679D2*
X18156D1*
X18967D2*
X23039D1*
X189Y8459D2*
X5898D1*
X8603D2*
X8899D1*
X9604D2*
X9899D1*
X10604D2*
X10763D1*
X14018D2*
X16233D1*
X17561D2*
X18089D1*
X19036D2*
X23039D1*
X189Y8343D2*
X5815D1*
X8688D2*
X8814D1*
X9688D2*
X9814D1*
X10689D2*
X10763D1*
X14018D2*
X16115D1*
X17445D2*
X18058D1*
X19067D2*
X23039D1*
X189Y8226D2*
X5773D1*
X14018D2*
X15998D1*
X17329D2*
X18056D1*
X19069D2*
X23039D1*
X189Y8109D2*
X5763D1*
X11741D2*
X11914D1*
X14018D2*
X15899D1*
X17211D2*
X18032D1*
X19043D2*
X23039D1*
X189Y7992D2*
X5782D1*
X9722D2*
X9781D1*
X11741D2*
X12031D1*
X14018D2*
X15873D1*
X17790D2*
X17916D1*
X18984D2*
X23039D1*
X189Y7875D2*
X5834D1*
X8670D2*
X8834D1*
X9670D2*
X9833D1*
X10668D2*
X10763D1*
X11855D2*
X12147D1*
X14018D2*
X15873D1*
X18883D2*
X23039D1*
X189Y7759D2*
X5935D1*
X8568D2*
X8936D1*
X9567D2*
X9884D1*
X10567D2*
X10763D1*
X11971D2*
X12234D1*
X14018D2*
X15873D1*
X18990D2*
X23039D1*
X189Y7642D2*
X6631D1*
X8120D2*
X9768D1*
X10559D2*
X11383D1*
X12088D2*
X12234D1*
X14018D2*
X15873D1*
X19047D2*
X23039D1*
X189Y7525D2*
X1576D1*
X6403D2*
X6747D1*
X8004D2*
X9652D1*
X10513D2*
X11499D1*
X12200D2*
X12332D1*
X14372D2*
X15873D1*
X19069D2*
X23039D1*
X189Y7408D2*
X1500D1*
X6522D2*
X6884D1*
X7867D2*
X9536D1*
X10406D2*
X11617D1*
X12244D2*
X12332D1*
X14463D2*
X15873D1*
X19065D2*
X23039D1*
X189Y7291D2*
X1475D1*
X6638D2*
X9418D1*
X10290D2*
X10560D1*
X14496D2*
X15873D1*
X19032D2*
X23039D1*
X189Y7175D2*
X1488D1*
X6754D2*
X9301D1*
X10174D2*
X10560D1*
X14490D2*
X15873D1*
X18962D2*
X23039D1*
X189Y7058D2*
X1545D1*
X6872D2*
X9185D1*
X10056D2*
X10560D1*
X14577D2*
X15873D1*
X18825D2*
X23039D1*
X189Y6941D2*
X1691D1*
X9939D2*
X10560D1*
X14693D2*
X15873D1*
X19071D2*
X23039D1*
X189Y6824D2*
X6121D1*
X9823D2*
X10560D1*
X14741D2*
X15873D1*
X19071D2*
X23039D1*
X189Y6707D2*
X6238D1*
X9705D2*
X10560D1*
X14747D2*
X15109D1*
X19071D2*
X23039D1*
X189Y6591D2*
X6356D1*
X9628D2*
X10560D1*
X14712D2*
X15109D1*
X19071D2*
X23039D1*
X189Y6474D2*
X6472D1*
X9628D2*
X10560D1*
X14627D2*
X15109D1*
X19071D2*
X23039D1*
X189Y6357D2*
X7755D1*
X8496D2*
X9122D1*
X9628D2*
X13568D1*
X14581D2*
X15109D1*
X19071D2*
X23039D1*
X189Y6240D2*
X3977D1*
X4397D2*
X7758D1*
X8491D2*
X9122D1*
X10554D2*
X13450D1*
X15042D2*
X15109D1*
X19071D2*
X23039D1*
X189Y6123D2*
X3866D1*
X4510D2*
X5647D1*
X6603D2*
X7805D1*
X8445D2*
X9122D1*
X10554D2*
X13334D1*
X15042D2*
X15109D1*
X19071D2*
X23039D1*
X189Y6007D2*
X3820D1*
X4554D2*
X5529D1*
X6721D2*
X7921D1*
X8330D2*
X9122D1*
X10554D2*
X13217D1*
X15042D2*
X15109D1*
X19071D2*
X19226D1*
X20025D2*
X23039D1*
X189Y5890D2*
X3817D1*
X6837D2*
X9122D1*
X10554D2*
X13099D1*
X18493D2*
X19064D1*
X20187D2*
X23039D1*
X189Y5773D2*
X3853D1*
X6924D2*
X9122D1*
X10554D2*
X12983D1*
X18266D2*
X18959D1*
X20293D2*
X23039D1*
X189Y5656D2*
X3948D1*
X6941D2*
X7823D1*
X8801D2*
X9122D1*
X10554D2*
X12867D1*
X13883D2*
X14024D1*
X15891D2*
X15991D1*
X20363D2*
X23039D1*
X189Y5539D2*
X4246D1*
X6941D2*
X7823D1*
X8801D2*
X9122D1*
X10554D2*
X12749D1*
X13767D2*
X14024D1*
X15891D2*
X16107D1*
X20411D2*
X23039D1*
X189Y5423D2*
X5780D1*
X6941D2*
X7823D1*
X8801D2*
X9122D1*
X10554D2*
X12632D1*
X15042D2*
X15109D1*
X15891D2*
X16225D1*
X20438D2*
X23039D1*
X189Y5306D2*
X5845D1*
X6941D2*
X7823D1*
X8801D2*
X9122D1*
X10554D2*
X12516D1*
X15042D2*
X15247D1*
X15753D2*
X16342D1*
X20449D2*
X23039D1*
X189Y5189D2*
X5775D1*
X6941D2*
X7823D1*
X8801D2*
X9122D1*
X10554D2*
X12400D1*
X15042D2*
X15247D1*
X15753D2*
X16458D1*
X20442D2*
X23039D1*
X189Y5072D2*
X5752D1*
X6941D2*
X7823D1*
X8801D2*
X9122D1*
X10554D2*
X12282D1*
X13300D2*
X13388D1*
X15042D2*
X15247D1*
X15753D2*
X16576D1*
X20418D2*
X23039D1*
X189Y4955D2*
X5767D1*
X6941D2*
X7823D1*
X8801D2*
X9122D1*
X10554D2*
X12169D1*
X13182D2*
X13252D1*
X16579D2*
X16692D1*
X20376D2*
X23039D1*
X189Y4839D2*
X5830D1*
X6941D2*
X7823D1*
X8801D2*
X9126D1*
X10554D2*
X12123D1*
X13066D2*
X13201D1*
X16579D2*
X16809D1*
X17890D2*
X18942D1*
X20309D2*
X23039D1*
X189Y4722D2*
X5872D1*
X6942D2*
X7823D1*
X10554D2*
X12123D1*
X12949D2*
X13190D1*
X16579D2*
X16927D1*
X18006D2*
X19038D1*
X20213D2*
X23039D1*
X189Y4605D2*
X5872D1*
X7060D2*
X7823D1*
X10554D2*
X12123D1*
X12877D2*
X13219D1*
X16579D2*
X17043D1*
X18122D2*
X19184D1*
X20067D2*
X23039D1*
X189Y4488D2*
X5872D1*
X7177D2*
X7823D1*
X10554D2*
X12123D1*
X12927D2*
X13300D1*
X13824D2*
X13885D1*
X16579D2*
X17159D1*
X18239D2*
X19510D1*
X19741D2*
X23039D1*
X189Y4371D2*
X5909D1*
X7293D2*
X7823D1*
X10554D2*
X12123D1*
X13043D2*
X13769D1*
X16579D2*
X17276D1*
X18357D2*
X23039D1*
X189Y4255D2*
X6018D1*
X7411D2*
X7823D1*
X8801D2*
X9536D1*
X10554D2*
X12130D1*
X13152D2*
X13653D1*
X16579D2*
X17394D1*
X18473D2*
X23039D1*
X189Y4138D2*
X6134D1*
X7527D2*
X7823D1*
X8801D2*
X9536D1*
X10554D2*
X12143D1*
X13189D2*
X13535D1*
X16151D2*
X17510D1*
X18589D2*
X23039D1*
X189Y4021D2*
X6253D1*
X7644D2*
X9536D1*
X10554D2*
X12005D1*
X13245D2*
X13418D1*
X16269D2*
X17626D1*
X18707D2*
X22232D1*
X22618D2*
X23039D1*
X189Y3904D2*
X6369D1*
X7760D2*
X9536D1*
X10554D2*
X11951D1*
X16386D2*
X17744D1*
X18798D2*
X22057D1*
X22793D2*
X23039D1*
X756Y3787D2*
X6485D1*
X10554D2*
X11940D1*
X16502D2*
X17861D1*
X18814D2*
X21972D1*
X22878D2*
X23039D1*
X756Y3671D2*
X6601D1*
X10554D2*
X11968D1*
X16620D2*
X17977D1*
X18814D2*
X21930D1*
X22920D2*
X23039D1*
X756Y3554D2*
X6719D1*
X10554D2*
X12047D1*
X16736D2*
X18060D1*
X18814D2*
X21917D1*
X22933D2*
X23039D1*
X756Y3437D2*
X6836D1*
X10554D2*
X12149D1*
X16853D2*
X18060D1*
X18814D2*
X21932D1*
X22919D2*
X23039D1*
X756Y3320D2*
X6952D1*
X10554D2*
X12265D1*
X16969D2*
X18060D1*
X18814D2*
X21978D1*
X22872D2*
X23039D1*
X756Y3203D2*
X7070D1*
X10554D2*
X12381D1*
X17087D2*
X18060D1*
X18814D2*
X22066D1*
X22784D2*
X23039D1*
X756Y3087D2*
X7186D1*
X10554D2*
X12498D1*
X17203D2*
X17794D1*
X18814D2*
X22256D1*
X22594D2*
X23039D1*
X756Y2970D2*
X7304D1*
X10554D2*
X12616D1*
X18814D2*
X23039D1*
X756Y2853D2*
X10560D1*
X18814D2*
X23039D1*
X756Y2736D2*
X10560D1*
X18814D2*
X23039D1*
X189Y2619D2*
X10560D1*
X18814D2*
X23039D1*
X189Y2503D2*
X2491D1*
X2884D2*
X3554D1*
X3947D2*
X10560D1*
X18814D2*
X23039D1*
X189Y2386D2*
X2325D1*
X3050D2*
X3388D1*
X4113D2*
X10560D1*
X18814D2*
X23039D1*
X189Y2269D2*
X2246D1*
X3130D2*
X3309D1*
X4193D2*
X10560D1*
X18790D2*
X23039D1*
X189Y2152D2*
X2207D1*
X3168D2*
X3270D1*
X4231D2*
X10560D1*
X18692D2*
X23039D1*
X189Y2035D2*
X2200D1*
X3176D2*
X3263D1*
X4239D2*
X4577D1*
X4798D2*
X10560D1*
X18574D2*
X21917D1*
X22933D2*
X23039D1*
X189Y1919D2*
X2222D1*
X3154D2*
X3283D1*
X4217D2*
X4398D1*
X4977D2*
X10560D1*
X18458D2*
X21917D1*
X22933D2*
X23039D1*
X189Y1802D2*
X2277D1*
X3113D2*
X3339D1*
X18342D2*
X21917D1*
X22933D2*
X23039D1*
X189Y1685D2*
X2384D1*
X3229D2*
X3447D1*
X18226D2*
X21917D1*
X22933D2*
X23039D1*
X189Y1568D2*
X2643D1*
X18107D2*
X21917D1*
X22933D2*
X23039D1*
X189Y1451D2*
X2759D1*
X17991D2*
X21917D1*
X22933D2*
X23039D1*
X189Y1335D2*
X2875D1*
X13534D2*
X13727D1*
X14023D2*
X21917D1*
X22933D2*
X23039D1*
X189Y1218D2*
X2888D1*
X11945D2*
X12045D1*
X14175D2*
X21917D1*
X22933D2*
X23039D1*
X189Y1101D2*
X2945D1*
X11829D2*
X12045D1*
X14234D2*
X21917D1*
X22933D2*
X23039D1*
X189Y984D2*
X3086D1*
X11711D2*
X13164D1*
X14249D2*
X23039D1*
X189Y867D2*
X3342D1*
X11595D2*
X13280D1*
X14223D2*
X23039D1*
X189Y751D2*
X3460D1*
X11479D2*
X13601D1*
X14149D2*
X23039D1*
X189Y634D2*
X3577D1*
X11360D2*
X23039D1*
X189Y517D2*
X23039D1*
X189Y400D2*
X23039D1*
X189Y283D2*
X23039D1*
X13523Y1512D2*
Y1316D1*
X13599Y1241D1*
X13661Y1292D1*
X13712Y1323D1*
X13766Y1345D1*
X13824Y1358D1*
X13883Y1362D1*
X13941Y1356D1*
X13998Y1340D1*
X14052Y1316D1*
X14101Y1283D1*
X14144Y1242D1*
X14180Y1195D1*
X14207Y1143D1*
X14226Y1087D1*
X14237Y1000D1*
X14232Y941D1*
X14218Y884D1*
X14194Y830D1*
X14162Y780D1*
X14123Y736D1*
X14077Y700D1*
X14025Y671D1*
X13970Y651D1*
X13912Y640D1*
X13853Y639D1*
X13794Y647D1*
X13738Y665D1*
X13686Y692D1*
X13638Y727D1*
X13606Y760D1*
X13500Y759D1*
X13442Y766D1*
X13387Y787D1*
X13330Y830D1*
X13164Y995D1*
X12727Y996D1*
X12057D1*
Y1341D1*
X11358Y642D1*
X11311Y606D1*
X11258Y582D1*
X11187Y572D1*
X3750D1*
X3692Y579D1*
X3637Y600D1*
X3580Y642D1*
X3270Y951D1*
X3228D1*
X3169Y960D1*
X3113Y978D1*
X3061Y1004D1*
X3013Y1039D1*
X2972Y1081D1*
X2938Y1130D1*
X2912Y1183D1*
X2896Y1239D1*
X2888Y1298D1*
X2890Y1333D1*
X2632Y1590D1*
X2553Y1605D1*
X2498Y1625D1*
X2445Y1652D1*
X2396Y1685D1*
X2352Y1724D1*
X2313Y1768D1*
X2279Y1816D1*
X2252Y1869D1*
X2231Y1924D1*
X2218Y1981D1*
X2211Y2040D1*
X2212Y2099D1*
X2220Y2158D1*
X2235Y2215D1*
X2258Y2269D1*
X2286Y2321D1*
X2321Y2368D1*
X2362Y2411D1*
X2407Y2449D1*
X2457Y2480D1*
X2510Y2506D1*
X2567Y2524D1*
X2624Y2536D1*
X2683Y2540D1*
X2742Y2537D1*
X2800Y2526D1*
X2857Y2509D1*
X2911Y2485D1*
X2961Y2454D1*
X3007Y2417D1*
X3048Y2375D1*
X3084Y2328D1*
X3114Y2277D1*
X3137Y2223D1*
X3154Y2166D1*
X3165Y2063D1*
X3161Y2004D1*
X3150Y1946D1*
X3132Y1890D1*
X3093Y1813D1*
X3230Y1673D1*
X3316Y1668D1*
X3373Y1653D1*
X3427Y1628D1*
X3468Y1600D1*
X3510Y1644D1*
X3508Y1652D1*
X3459Y1685D1*
X3415Y1724D1*
X3375Y1768D1*
X3342Y1816D1*
X3314Y1869D1*
X3294Y1924D1*
X3280Y1981D1*
X3274Y2040D1*
X3275Y2099D1*
X3283Y2158D1*
X3298Y2215D1*
X3320Y2269D1*
X3349Y2321D1*
X3384Y2368D1*
X3424Y2411D1*
X3470Y2449D1*
X3520Y2480D1*
X3573Y2506D1*
X3629Y2524D1*
X3687Y2536D1*
X3746Y2540D1*
X3805Y2537D1*
X3863Y2526D1*
X3919Y2509D1*
X3973Y2485D1*
X4024Y2454D1*
X4070Y2417D1*
X4111Y2375D1*
X4147Y2328D1*
X4177Y2277D1*
X4200Y2223D1*
X4216Y2166D1*
X4228Y2063D1*
X4224Y2004D1*
X4213Y1946D1*
X4182Y1861D1*
X4254Y1856D1*
X4311Y1840D1*
X4353Y1821D1*
X4362Y1845D1*
X4391Y1896D1*
X4429Y1941D1*
X4474Y1979D1*
X4524Y2010D1*
X4579Y2033D1*
X4636Y2046D1*
X4695Y2049D1*
X4754Y2043D1*
X4811Y2028D1*
X4864Y2003D1*
X4913Y1970D1*
X4956Y1930D1*
X4992Y1883D1*
X5020Y1831D1*
X5029Y1805D1*
X5639Y1803D1*
X10712D1*
X10800Y1891D1*
X10769Y1892D1*
X10640Y1890D1*
X10572D1*
Y2884D1*
X11054Y2882D1*
X11182Y2884D1*
X11250Y2882D1*
X11379Y2884D1*
X11447Y2882D1*
X11576Y2884D1*
X11644Y2882D1*
X11772Y2884D1*
X11841Y2882D1*
X11969Y2884D1*
X12038Y2882D1*
X12032Y2884D1*
X12628Y2882D1*
X12714Y2884D1*
X12142Y3455D1*
X12095Y3521D1*
X12034Y3581D1*
X12000Y3630D1*
X11975Y3683D1*
X11958Y3739D1*
X11951Y3798D1*
X11953Y3857D1*
X11965Y3915D1*
X11987Y3970D1*
X12016Y4021D1*
X12054Y4066D1*
X12099Y4104D1*
X12149Y4135D1*
X12195Y4154D1*
X12158Y4209D1*
X12139Y4265D1*
X12134Y4372D1*
Y4813D1*
X12141Y4871D1*
X12162Y4926D1*
X12205Y4983D1*
X13600Y6378D1*
X13524Y6380D1*
X13396Y6378D1*
X13328Y6380D1*
X13199Y6378D1*
X13131Y6380D1*
X13002Y6378D1*
X12934Y6380D1*
X12806Y6378D1*
X12737Y6380D1*
X12609Y6378D1*
X12540Y6380D1*
X12546Y6378D1*
X11950Y6380D1*
X11821Y6378D1*
X11753Y6380D1*
X11624Y6378D1*
X11556Y6380D1*
X11428Y6378D1*
X11359Y6380D1*
X11231Y6378D1*
X11162Y6380D1*
X11034Y6378D1*
X10965Y6380D1*
X10837Y6378D1*
X10769Y6380D1*
X10640Y6378D1*
X10572D1*
Y7372D1*
X11054Y7370D1*
X11182Y7372D1*
X11250Y7370D1*
X11379Y7372D1*
X11447Y7370D1*
X11576Y7372D1*
X11644Y7370D1*
X11664Y7372D1*
X11389Y7648D1*
X10774Y7649D1*
Y8573D1*
X10601Y8572D1*
X10536Y8508D1*
X10571Y8480D1*
X10612Y8438D1*
X10648Y8391D1*
X10677Y8340D1*
X10701Y8286D1*
X10717Y8229D1*
X10728Y8126D1*
X10725Y8067D1*
X10714Y8009D1*
X10696Y7953D1*
X10671Y7899D1*
X10640Y7849D1*
X10603Y7803D1*
X10550Y7754D1*
X10551Y7689D1*
X10545Y7630D1*
X10528Y7574D1*
X10500Y7522D1*
X10463Y7477D1*
X9616Y6630D1*
Y6349D1*
X10542Y6348D1*
X10540Y5867D1*
X10542Y5738D1*
X10540Y5670D1*
X10542Y5541D1*
X10540Y5473D1*
X10542Y5344D1*
X10540Y5276D1*
X10542Y5148D1*
X10540Y5079D1*
X10542Y4951D1*
X10540Y4882D1*
X10542Y4754D1*
X10540Y4685D1*
X10542Y4557D1*
X10540Y4489D1*
X10542Y4360D1*
X10540Y4292D1*
X10542Y4163D1*
X10540Y4095D1*
X10542Y3967D1*
X10540Y3898D1*
X10542Y3770D1*
X10540Y3701D1*
X10542Y3573D1*
X10540Y3504D1*
X10542Y3376D1*
X10540Y3307D1*
X10542Y3179D1*
X10540Y3111D1*
X10542Y2982D1*
Y2914D1*
X9548Y2916D1*
X9572Y2914D1*
X7470D1*
X7412Y2921D1*
X7357Y2942D1*
X7300Y2984D1*
X5955Y4330D1*
X5918Y4376D1*
X5894Y4430D1*
X5884Y4500D1*
Y4793D1*
X5847Y4831D1*
X5813Y4880D1*
X5787Y4933D1*
X5771Y4989D1*
X5763Y5048D1*
X5766Y5107D1*
X5778Y5165D1*
X5799Y5220D1*
X5829Y5271D1*
X5863Y5312D1*
X5813Y5380D1*
X5787Y5433D1*
X5771Y5489D1*
X5764Y5553D1*
X5695Y5519D1*
X5625Y5509D1*
X4375D1*
X4317Y5516D1*
X4262Y5537D1*
X4212Y5573D1*
X4241Y5550D1*
X4165Y5576D1*
X4107Y5585D1*
X4051Y5603D1*
X3998Y5629D1*
X3950Y5664D1*
X3909Y5706D1*
X3875Y5755D1*
X3850Y5808D1*
X3833Y5864D1*
X3826Y5923D1*
X3828Y5982D1*
X3840Y6040D1*
X3862Y6095D1*
X3891Y6146D1*
X3929Y6191D1*
X3974Y6229D1*
X4024Y6260D1*
X4079Y6283D1*
X4136Y6296D1*
X4195Y6299D1*
X4254Y6293D1*
X4311Y6278D1*
X4364Y6253D1*
X4413Y6220D1*
X4456Y6180D1*
X4492Y6133D1*
X4520Y6081D1*
X4539Y6025D1*
X4544Y5990D1*
X5525Y5991D1*
X5642Y6108D1*
X5689Y6144D1*
X5742Y6168D1*
X5813Y6178D1*
X6438D1*
X6496Y6171D1*
X6551Y6150D1*
X6608Y6108D1*
X6858Y5858D1*
X6894Y5811D1*
X6918Y5758D1*
X6928Y5688D1*
Y4726D1*
X7864Y3789D1*
X9550D1*
X9548Y3918D1*
X9550Y3986D1*
X9548Y4115D1*
X9550Y4183D1*
X9548Y4272D1*
Y4292D1*
X8790D1*
Y4125D1*
X7835D1*
X7837Y5000D1*
X7835Y5038D1*
Y5748D1*
X8790D1*
Y4773D1*
X9156Y4774D1*
X9144Y4805D1*
X9134Y4875D1*
Y6412D1*
X8472D1*
X8486Y6342D1*
X8482Y6254D1*
X8468Y6196D1*
X8444Y6142D1*
X8412Y6093D1*
X8373Y6049D1*
X8327Y6012D1*
X8275Y5983D1*
X8220Y5963D1*
X8162Y5953D1*
X8103Y5951D1*
X8044Y5960D1*
X7988Y5978D1*
X7936Y6004D1*
X7888Y6039D1*
X7847Y6081D1*
X7813Y6130D1*
X7787Y6183D1*
X7771Y6239D1*
X7763Y6298D1*
X7766Y6357D1*
X7778Y6413D1*
X6883Y6412D1*
X6815Y6385D1*
X6757Y6374D1*
X6698D1*
X6640Y6384D1*
X6584Y6404D1*
X6533Y6433D1*
X6485Y6472D1*
X6025Y6933D1*
X1971D1*
X1884Y6912D1*
X1825Y6911D1*
X1767Y6919D1*
X1710Y6937D1*
X1658Y6964D1*
X1610Y6999D1*
X1569Y7041D1*
X1535Y7089D1*
X1510Y7142D1*
X1493Y7199D1*
X1486Y7258D1*
X1488Y7316D1*
X1500Y7374D1*
X1521Y7429D1*
X1551Y7480D1*
X1589Y7525D1*
X1634Y7564D1*
X1684Y7595D1*
X1738Y7617D1*
X1796Y7630D1*
X1855Y7634D1*
X1914Y7628D1*
X1972Y7612D1*
X6165D1*
X6224Y7606D1*
X6281Y7591D1*
X6335Y7566D1*
X6405Y7512D1*
X6905Y7012D1*
X7967D1*
X8008Y7031D1*
X8065Y7046D1*
X8123Y7052D1*
X8182Y7047D1*
X8239Y7032D1*
X8281Y7013D1*
X9149Y7012D1*
X9920Y7782D1*
X9876Y7831D1*
X9843Y7879D1*
X9815Y7932D1*
X9795Y7987D1*
X9781Y8044D1*
X9775Y8103D1*
Y8162D1*
X9784Y8221D1*
X9799Y8278D1*
X9821Y8332D1*
X9850Y8384D1*
X9885Y8431D1*
X9925Y8474D1*
X9971Y8512D1*
X10010Y8537D1*
X10009Y8563D1*
X10016Y8621D1*
X10037Y8676D1*
X10080Y8733D1*
X10330Y8983D1*
X10376Y9019D1*
X10430Y9043D1*
X10500Y9053D1*
X11562D1*
X11621Y9046D1*
X11676Y9025D1*
X11733Y8983D1*
X12246Y8472D1*
Y9068D1*
X12422D1*
X12375Y9130D1*
X12350Y9183D1*
X12333Y9239D1*
X12326Y9298D1*
X12328Y9357D1*
X12334Y9384D1*
X8850D1*
X7993Y8527D1*
X8074Y8569D1*
X8130Y8587D1*
X8188Y8599D1*
X8247Y8603D1*
X8306Y8600D1*
X8364Y8589D1*
X8420Y8572D1*
X8474Y8548D1*
X8524Y8517D1*
X8571Y8480D1*
X8612Y8438D1*
X8648Y8391D1*
X8677Y8340D1*
X8701Y8286D1*
X8717Y8229D1*
X8728Y8126D1*
X8725Y8067D1*
X8714Y8009D1*
X8696Y7953D1*
X8671Y7899D1*
X8640Y7849D1*
X8603Y7803D1*
X8560Y7762D1*
X8513Y7727D1*
X8462Y7698D1*
X8407Y7675D1*
X8350Y7659D1*
X8292Y7650D1*
X8233Y7649D1*
X8174Y7655D1*
X8129Y7663D1*
X7921Y7455D1*
X7874Y7418D1*
X7821Y7394D1*
X7750Y7384D1*
X7000D1*
X6942Y7391D1*
X6887Y7412D1*
X6830Y7455D1*
X6563Y7723D1*
X6513Y7727D1*
X6462Y7698D1*
X6407Y7675D1*
X6350Y7659D1*
X6292Y7650D1*
X6233Y7649D1*
X6174Y7655D1*
X6117Y7668D1*
X6061Y7688D1*
X6009Y7715D1*
X5960Y7748D1*
X5915Y7787D1*
X5876Y7831D1*
X5843Y7879D1*
X5815Y7932D1*
X5795Y7987D1*
X5781Y8044D1*
X5775Y8103D1*
Y8162D1*
X5784Y8221D1*
X5799Y8278D1*
X5821Y8332D1*
X5850Y8384D1*
X5885Y8431D1*
X5925Y8474D1*
X5971Y8512D1*
X6021Y8544D1*
X6074Y8569D1*
X6130Y8587D1*
X6188Y8599D1*
X6247Y8603D1*
X6306Y8600D1*
X6364Y8589D1*
X6420Y8572D1*
X6474Y8548D1*
X6546Y8500D1*
X6580Y8545D1*
X8080Y10045D1*
X8126Y10082D1*
X8180Y10106D1*
X8250Y10116D1*
X11851D1*
X11833Y10177D1*
X11826Y10235D1*
X11828Y10294D1*
X11835Y10325D1*
X10955Y11205D1*
X10918Y11251D1*
X10894Y11305D1*
X10884Y11375D1*
Y11480D1*
X10847Y11519D1*
X10813Y11567D1*
X10787Y11620D1*
X10771Y11677D1*
X10763Y11735D1*
X10766Y11794D1*
X10778Y11852D1*
X10799Y11907D1*
X10829Y11958D1*
X10867Y12003D1*
X10911Y12042D1*
X10962Y12073D1*
X11016Y12095D1*
X11074Y12108D1*
X11133Y12112D1*
X11191Y12106D1*
X11248Y12090D1*
X11302Y12066D1*
X11351Y12033D1*
X11394Y11992D1*
X11430Y11945D1*
X11457Y11893D1*
X11476Y11837D1*
X11487Y11750D1*
X11482Y11691D1*
X11468Y11634D1*
X11444Y11580D1*
X11412Y11530D1*
X11366Y11481D1*
X11421Y11420D1*
X12231Y10610D1*
X12311Y10590D1*
X12364Y10566D1*
X12413Y10533D1*
X12456Y10492D1*
X12492Y10445D1*
X12520Y10393D1*
X12539Y10337D1*
X12549Y10250D1*
X12545Y10191D1*
X12522Y10115D1*
X13000Y10116D1*
X13058Y10109D1*
X13113Y10088D1*
X13170Y10045D1*
X13936Y9280D1*
X13972Y9234D1*
X13996Y9180D1*
X14006Y9110D1*
Y7591D1*
X14074Y7608D1*
X14133Y7612D1*
X14191Y7606D1*
X14248Y7590D1*
X14302Y7566D1*
X14351Y7533D1*
X14394Y7492D1*
X14430Y7445D1*
X14457Y7393D1*
X14476Y7337D1*
X14487Y7250D1*
X14482Y7191D1*
X14468Y7134D1*
X14454Y7102D1*
X14498Y7090D1*
X14552Y7066D1*
X14601Y7033D1*
X14644Y6992D1*
X14680Y6945D1*
X14707Y6893D1*
X14726Y6837D1*
X14737Y6750D1*
X14732Y6691D1*
X14718Y6634D1*
X14694Y6580D1*
X14662Y6530D1*
X14616Y6481D1*
X14602Y6420D1*
X14568Y6348D1*
X15030D1*
Y5954D1*
X15122Y5955D1*
X15123Y6148D1*
X15121Y6186D1*
Y6818D1*
X15879D1*
Y5352D1*
X15740D1*
X15741Y5003D1*
X15898Y5004D1*
X16568D1*
Y4246D1*
X16032D1*
X17288Y2990D1*
X17669Y2991D1*
X17724Y3042D1*
X17774Y3073D1*
X17829Y3095D1*
X17886Y3108D1*
X17945Y3112D1*
X18004Y3106D1*
X18072Y3085D1*
Y3587D1*
X15955Y5705D1*
X15918Y5751D1*
X15894Y5805D1*
X15884Y5875D1*
Y8000D1*
X15891Y8058D1*
X15912Y8113D1*
X15955Y8170D1*
X16514Y8730D1*
X16516Y8794D1*
X16528Y8852D1*
X16549Y8907D1*
X16579Y8958D1*
X16617Y9003D1*
X16661Y9042D1*
X16712Y9073D1*
X16766Y9095D1*
X16824Y9108D1*
X16883Y9112D1*
X16941Y9106D1*
X16998Y9090D1*
X17052Y9066D1*
X17101Y9033D1*
X17144Y8992D1*
X17180Y8945D1*
X17207Y8893D1*
X17229Y8821D1*
X17260Y8851D1*
X17259Y9184D1*
X17200Y9226D1*
X17159Y9269D1*
X17125Y9317D1*
X17100Y9370D1*
X17083Y9427D1*
X17076Y9485D1*
X17078Y9544D1*
X17090Y9602D1*
X17111Y9657D1*
X17141Y9708D1*
X17179Y9753D1*
X17224Y9792D1*
X17274Y9823D1*
X17329Y9845D1*
X17386Y9858D1*
X17445Y9862D1*
X17504Y9855D1*
X17561Y9840D1*
X17614Y9815D1*
X17663Y9783D1*
X17706Y9742D1*
X17742Y9695D1*
X17770Y9643D1*
X17788Y9587D1*
X17799Y9500D1*
X17794Y9441D1*
X17780Y9384D1*
X17757Y9330D1*
X17742Y9306D1*
X17741Y8750D1*
X17734Y8692D1*
X17713Y8637D1*
X17670Y8580D1*
X17084Y7994D1*
X17750D1*
X17808Y7985D1*
X17869Y7950D1*
X17892Y7958D1*
X18082Y8147D1*
X18066Y8248D1*
X18067Y8307D1*
X18074Y8366D1*
X18089Y8423D1*
X18110Y8478D1*
X18137Y8530D1*
X18171Y8579D1*
X18210Y8623D1*
X18254Y8663D1*
X18302Y8697D1*
X18354Y8725D1*
X18409Y8746D1*
X18497Y8765D1*
X18424Y8781D1*
X18346Y8810D1*
X18275Y8852D1*
X18212Y8906D1*
X18159Y8968D1*
X18116Y9039D1*
X18086Y9116D1*
X18069Y9197D1*
X18066Y9280D1*
X18077Y9362D1*
X18100Y9441D1*
X18137Y9515D1*
X18186Y9582D1*
X18244Y9639D1*
X18312Y9687D1*
X18386Y9722D1*
X18466Y9745D1*
X18548Y9755D1*
X18630Y9750D1*
X18711Y9732D1*
X18787Y9701D1*
X18858Y9658D1*
X18920Y9603D1*
X18972Y9539D1*
X19013Y9467D1*
X19041Y9390D1*
X19057Y9309D1*
X19059Y9234D1*
X19048Y9152D1*
X19024Y9073D1*
X18987Y9000D1*
X18938Y8933D1*
X18879Y8875D1*
X18811Y8828D1*
X18737Y8793D1*
X18657Y8770D1*
X18630Y8766D1*
X18700Y8751D1*
X18755Y8732D1*
X18808Y8705D1*
X18858Y8673D1*
X18903Y8635D1*
X18944Y8592D1*
X18979Y8545D1*
X19008Y8494D1*
X19031Y8439D1*
X19047Y8383D1*
X19057Y8324D1*
X19059Y8274D1*
X19056Y8215D1*
X19045Y8157D1*
X19028Y8100D1*
X19004Y8046D1*
X18974Y7995D1*
X18938Y7949D1*
X18864Y7880D1*
X18903Y7848D1*
X18944Y7805D1*
X18979Y7758D1*
X19008Y7706D1*
X19031Y7652D1*
X19047Y7595D1*
X19057Y7537D1*
X19059Y7486D1*
X19056Y7427D1*
X19045Y7369D1*
X19028Y7313D1*
X19004Y7259D1*
X18974Y7208D1*
X18938Y7161D1*
X18897Y7119D1*
X18851Y7082D1*
X18801Y7050D1*
X18748Y7025D1*
X18654Y6999D1*
X19059D1*
Y6005D1*
X18600D1*
X18516Y5920D1*
X18471Y5881D1*
X18421Y5850D1*
X18366Y5828D1*
X18315Y5815D1*
X18254Y5808D1*
Y5740D1*
X18215D1*
X18217Y5691D1*
X18918D1*
X18961Y5760D1*
X19020Y5834D1*
X19087Y5900D1*
X19161Y5959D1*
X19241Y6008D1*
X19327Y6048D1*
X19416Y6078D1*
X19509Y6097D1*
X19603Y6105D1*
X19697Y6102D1*
X19791Y6088D1*
X19882Y6064D1*
X19970Y6029D1*
X20053Y5984D1*
X20130Y5929D1*
X20201Y5866D1*
X20263Y5796D1*
X20317Y5718D1*
X20362Y5635D1*
X20397Y5547D1*
X20421Y5456D1*
X20434Y5362D1*
X20437Y5270D1*
X20429Y5176D1*
X20410Y5083D1*
X20380Y4993D1*
X20340Y4908D1*
X20290Y4828D1*
X20232Y4753D1*
X20165Y4687D1*
X20091Y4628D1*
X20011Y4579D1*
X19925Y4539D1*
X19835Y4509D1*
X19743Y4490D1*
X19649Y4482D1*
X19554Y4485D1*
X19461Y4498D1*
X19370Y4523D1*
X19282Y4558D1*
X19199Y4603D1*
X19122Y4657D1*
X19051Y4720D1*
X18988Y4790D1*
X18934Y4868D1*
X18898Y4934D1*
X17781D1*
X18733Y3983D1*
X18769Y3936D1*
X18793Y3883D1*
X18803Y3813D1*
Y2375D1*
X18796Y2317D1*
X18775Y2262D1*
X18733Y2205D1*
X17983Y1455D1*
X17936Y1418D1*
X17883Y1394D1*
X17812Y1384D1*
X13750D1*
X13692Y1391D1*
X13637Y1412D1*
X13580Y1455D1*
X13524Y1511D1*
X12345Y7602D2*
X12246D1*
Y7795D1*
X12163Y7871D1*
X11728Y8306D1*
Y7988D1*
X12164Y7554D1*
X12200Y7507D1*
X12224Y7453D1*
X12235Y7383D1*
Y7370D1*
X12288Y7372D1*
X12345D1*
X12343Y7600D1*
X15161Y5004D2*
X15258D1*
X15259Y5350D1*
X15121Y5352D1*
Y5472D1*
X15028Y5473D1*
X15030Y5419D1*
Y4575D1*
X15103Y4577D1*
X15102Y4837D1*
Y5004D1*
X15161D1*
X15121Y6021D2*
Y6151D1*
X15030Y6152D1*
Y5974D1*
X21987Y2055D2*
X22922D1*
Y1061D1*
X21928D1*
Y2055D1*
X21987D1*
X22919Y3499D2*
X22908Y3441D1*
X22891Y3385D1*
X22867Y3331D1*
X22837Y3280D1*
X22801Y3233D1*
X22760Y3191D1*
X22714Y3154D1*
X22664Y3122D1*
X22611Y3097D1*
X22555Y3078D1*
X22497Y3066D1*
X22438Y3061D1*
X22379Y3063D1*
X22321Y3072D1*
X22264Y3088D1*
X22209Y3111D1*
X22158Y3139D1*
X22110Y3174D1*
X22067Y3214D1*
X22028Y3259D1*
X21996Y3308D1*
X21969Y3361D1*
X21949Y3416D1*
X21936Y3474D1*
X21929Y3533D1*
Y3592D1*
X21937Y3650D1*
X21951Y3707D1*
X21972Y3763D1*
X22000Y3815D1*
X22033Y3863D1*
X22072Y3908D1*
X22116Y3947D1*
X22165Y3981D1*
X22217Y4009D1*
X22271Y4031D1*
X22329Y4045D1*
X22387Y4053D1*
X22446Y4054D1*
X22505Y4049D1*
X22562Y4036D1*
X22618Y4016D1*
X22671Y3990D1*
X22720Y3958D1*
X22766Y3920D1*
X22806Y3877D1*
X22841Y3830D1*
X22871Y3778D1*
X22894Y3724D1*
X22910Y3667D1*
X22919Y3609D1*
X22922Y3558D1*
X22919Y3499D1*
X20437Y10455D2*
X20430Y10361D1*
X20413Y10268D1*
X20384Y10178D1*
X20346Y10092D1*
X20297Y10010D1*
X20240Y9936D1*
X20174Y9868D1*
X20101Y9808D1*
X20021Y9758D1*
X19936Y9716D1*
X19847Y9685D1*
X19754Y9665D1*
X19661Y9655D1*
X19566Y9657D1*
X19472Y9669D1*
X19381Y9692D1*
X19293Y9726D1*
X19209Y9770D1*
X19131Y9823D1*
X19059Y9885D1*
X18996Y9954D1*
X18940Y10031D1*
X18895Y10113D1*
X18858Y10201D1*
X18833Y10292D1*
X18818Y10385D1*
X18814Y10479D1*
X18821Y10573D1*
X18839Y10666D1*
X18867Y10756D1*
X18906Y10842D1*
X18954Y10923D1*
X19012Y10998D1*
X19078Y11066D1*
X19151Y11125D1*
X19231Y11176D1*
X19316Y11217D1*
X19405Y11248D1*
X19497Y11268D1*
X19591Y11278D1*
X19686Y11276D1*
X19779Y11264D1*
X19871Y11240D1*
X19959Y11207D1*
X20043Y11163D1*
X20121Y11110D1*
X20192Y11048D1*
X20256Y10978D1*
X20311Y10901D1*
X20357Y10819D1*
X20393Y10732D1*
X20418Y10641D1*
X20433Y10547D1*
X20437Y10455D1*
X14036Y5408D2*
Y5559D1*
Y5768D1*
Y5819D1*
X13670Y5454D1*
X13706Y5468D1*
X13763Y5481D1*
X13822Y5485D1*
X13881Y5479D1*
X13938Y5463D1*
X13991Y5439D1*
X14036Y5410D1*
Y5822D1*
X9728Y8114D2*
X9721Y8044D1*
X9704Y7975D1*
X9677Y7910D1*
X9640Y7849D1*
X9595Y7795D1*
X9542Y7747D1*
X9483Y7709D1*
X9418Y7679D1*
X9350Y7659D1*
X9280Y7650D1*
X9210D1*
X9140Y7662D1*
X9072Y7683D1*
X9009Y7715D1*
X8951Y7755D1*
X8899Y7804D1*
X8855Y7859D1*
X8820Y7921D1*
X8795Y7987D1*
X8779Y8056D1*
X8774Y8127D1*
X8779Y8197D1*
X8795Y8266D1*
X8821Y8332D1*
X8856Y8394D1*
X8900Y8449D1*
X8952Y8497D1*
X9010Y8538D1*
X9074Y8569D1*
X9141Y8590D1*
X9211Y8601D1*
X9282Y8602D1*
X9352Y8592D1*
X9420Y8572D1*
X9484Y8542D1*
X9543Y8503D1*
X9596Y8456D1*
X9641Y8401D1*
X9677Y8340D1*
X9705Y8275D1*
X9722Y8206D1*
X9728Y8126D1*
Y8114D1*
X3708Y14490D2*
X3690Y14373D1*
X3654Y14261D1*
X3602Y14155D1*
X3534Y14058D1*
X3452Y13973D1*
X3359Y13901D1*
X3255Y13845D1*
X3144Y13805D1*
X3029Y13782D1*
X2911Y13777D1*
X2793Y13790D1*
X2679Y13821D1*
X2572Y13868D1*
X2472Y13932D1*
X2384Y14010D1*
X2308Y14101D1*
X2247Y14202D1*
X2203Y14311D1*
X2175Y14426D1*
X2165Y14543D1*
X2173Y14661D1*
X2199Y14776D1*
X2242Y14886D1*
X2302Y14988D1*
X2376Y15080D1*
X2464Y15159D1*
X2562Y15224D1*
X2669Y15273D1*
X2783Y15306D1*
X2900Y15320D1*
X3018Y15317D1*
X3134Y15296D1*
X3245Y15257D1*
X3350Y15202D1*
X3444Y15132D1*
X3527Y15048D1*
X3596Y14952D1*
X3650Y14847D1*
X3687Y14735D1*
X3707Y14619D1*
X3710Y14549D1*
X3708Y14490D1*
X21857Y13379D2*
X21843Y13321D1*
X21819Y13267D1*
X21787Y13218D1*
X21748Y13174D1*
X21702Y13137D1*
X21650Y13108D1*
X21595Y13088D1*
X21537Y13078D1*
X21478Y13076D1*
X21419Y13085D1*
X21363Y13103D1*
X21311Y13129D1*
X21263Y13164D1*
X21222Y13206D1*
X21188Y13255D1*
X21162Y13308D1*
X21146Y13364D1*
X21138Y13423D1*
X21141Y13482D1*
X21153Y13540D1*
X21174Y13595D1*
X21204Y13646D1*
X21242Y13691D1*
X21286Y13729D1*
X21337Y13760D1*
X21391Y13783D1*
X21449Y13796D1*
X21508Y13799D1*
X21566Y13793D1*
X21623Y13778D1*
X21677Y13753D1*
X21726Y13720D1*
X21769Y13680D1*
X21805Y13633D1*
X21832Y13581D1*
X21851Y13525D1*
X21862Y13437D1*
X21857Y13379D1*
X176Y3903D2*
X745D1*
Y2683D1*
X178D1*
X177Y1634D1*
Y177D1*
X23051D1*
Y16752D1*
X177D1*
Y3902D1*
X16633Y15381D2*
X18485D1*
X18544Y15375D1*
X18600Y15358D1*
X18652Y15330D1*
X18697Y15293D1*
X19661Y14329D1*
X19698Y14284D1*
X19726Y14232D1*
X19743Y14175D1*
X19749Y14117D1*
Y12650D1*
X19781Y12590D1*
X19800Y12534D1*
X19811Y12447D1*
X19806Y12388D1*
X19792Y12331D1*
X19768Y12277D1*
X19736Y12227D1*
X19697Y12183D1*
X19651Y12147D1*
X19599Y12118D1*
X19544Y12098D1*
X19486Y12087D1*
X19427Y12086D1*
X19368Y12094D1*
X19312Y12112D1*
X19259Y12139D1*
X19212Y12174D1*
X19171Y12216D1*
X19137Y12264D1*
X19111Y12317D1*
X19094Y12374D1*
X19087Y12432D1*
X19090Y12491D1*
X19102Y12549D1*
X19123Y12604D1*
X19148Y12647D1*
X19149Y13992D1*
X18361Y14781D1*
X16487D1*
X16413Y14765D1*
X16355Y14764D1*
X16296Y14772D1*
X16240Y14790D1*
X16187Y14817D1*
X16140Y14852D1*
X16098Y14894D1*
X16065Y14942D1*
X16039Y14995D1*
X16022Y15052D1*
X16015Y15110D1*
X16018Y15169D1*
X16030Y15227D1*
X16051Y15282D1*
X16081Y15333D1*
X16118Y15378D1*
X16163Y15417D1*
X16213Y15448D1*
X16268Y15470D1*
X16325Y15483D1*
X16384Y15487D1*
X16443Y15481D1*
X16500Y15465D1*
X16554Y15441D1*
X16603Y15408D1*
X16631Y15381D1*
X13292Y3883D2*
X13898Y4488D1*
X13810Y4486D1*
X13764Y4450D1*
X13713Y4421D1*
X13657Y4401D1*
X13599Y4390D1*
X13540Y4389D1*
X13482Y4397D1*
X13426Y4415D1*
X13373Y4442D1*
X13325Y4477D1*
X13284Y4519D1*
X13250Y4567D1*
X13225Y4620D1*
X13208Y4677D1*
X13201Y4735D1*
X13203Y4794D1*
X13215Y4852D1*
X13237Y4907D1*
X13266Y4958D1*
X13304Y5003D1*
X13349Y5042D1*
X13399Y5073D1*
X13455Y5095D1*
Y5167D1*
X13467Y5225D1*
X13484Y5268D1*
X12866Y4650D1*
Y4538D1*
X13108Y4295D1*
X13144Y4249D1*
X13168Y4195D1*
X13178Y4125D1*
Y4083D1*
X13206Y4055D1*
X13242Y4008D1*
X13270Y3956D1*
X13291Y3884D1*
X13198Y11938D2*
Y11732D1*
X13445Y11487D1*
X13504Y11481D1*
X13561Y11465D1*
X13614Y11441D1*
X13663Y11408D1*
X13706Y11367D1*
X13742Y11321D1*
X13770Y11268D1*
X13788Y11213D1*
X13799Y11125D1*
X13794Y11066D1*
X13780Y11009D1*
X13757Y10955D1*
X13725Y10905D1*
X13685Y10862D1*
X13639Y10825D1*
X13588Y10796D1*
X13532Y10776D1*
X13474Y10765D1*
X13415Y10764D1*
X13357Y10772D1*
X13300Y10790D1*
X13248Y10817D1*
X13200Y10852D1*
X13159Y10894D1*
X13125Y10942D1*
X13100Y10995D1*
X13083Y11052D1*
X13076Y11120D1*
X12753Y11441D1*
X12716Y11487D1*
X12691Y11540D1*
X12678Y11599D1*
X12677Y11625D1*
Y11937D1*
X12625Y12005D1*
X12600Y12058D1*
X12583Y12114D1*
X12576Y12173D1*
X12578Y12232D1*
X12590Y12290D1*
X12612Y12345D1*
X12641Y12396D1*
X12679Y12441D1*
X12724Y12480D1*
X12774Y12510D1*
X12829Y12533D1*
X12886Y12546D1*
X12945Y12549D1*
X13004Y12543D1*
X13061Y12528D1*
X13114Y12503D1*
X13163Y12470D1*
X13206Y12430D1*
X13242Y12383D1*
X13270Y12331D1*
X13289Y12275D1*
X13299Y12188D1*
X13294Y12129D1*
X13280Y12072D1*
X13257Y12017D1*
X13225Y11968D1*
X13199Y11939D1*
X17249Y12074D2*
Y11410D1*
X17277Y11384D1*
X17312Y11337D1*
X17340Y11285D1*
X17359Y11229D1*
X17370Y11142D1*
X17365Y11083D1*
X17351Y11026D1*
X17327Y10972D1*
X17295Y10922D1*
X17256Y10878D1*
X17210Y10841D1*
X17158Y10813D1*
X17103Y10793D1*
X17045Y10782D1*
X16986Y10781D1*
X16927Y10789D1*
X16871Y10807D1*
X16818Y10833D1*
X16771Y10868D1*
X16730Y10911D1*
X16696Y10959D1*
X16670Y11012D1*
X16654Y11069D1*
X16646Y11127D1*
X16649Y11186D1*
X16661Y11244D1*
X16682Y11299D1*
X16712Y11350D1*
X16768Y11411D1*
X16767Y12077D1*
X16730Y12114D1*
X16696Y12163D1*
X16670Y12216D1*
X16654Y12272D1*
X16646Y12331D1*
X16649Y12390D1*
X16661Y12448D1*
X16682Y12503D1*
X16712Y12553D1*
X16750Y12599D1*
X16794Y12637D1*
X16844Y12668D1*
X16899Y12691D1*
X16957Y12704D1*
X17015Y12707D1*
X17074Y12701D1*
X17131Y12686D1*
X17185Y12661D1*
X17234Y12628D1*
X17277Y12588D1*
X17312Y12541D1*
X17340Y12489D1*
X17359Y12433D1*
X17370Y12345D1*
X17365Y12287D1*
X17351Y12229D1*
X17327Y12175D1*
X17295Y12126D1*
X17249Y12076D1*
X17259Y9186D2*
X17200Y9226D1*
X17159Y9269D1*
X17125Y9317D1*
X17100Y9370D1*
X17083Y9427D1*
X17076Y9485D1*
X17078Y9544D1*
X17090Y9602D1*
X17111Y9657D1*
X17141Y9708D1*
X17179Y9753D1*
X17224Y9792D1*
X17274Y9823D1*
X17329Y9845D1*
X17386Y9858D1*
X17445Y9862D1*
X17504Y9855D1*
X17561Y9840D1*
X17614Y9815D1*
X17663Y9783D1*
X17706Y9742D1*
X17742Y9695D1*
X17770Y9643D1*
X17788Y9587D1*
X17799Y9500D1*
X17794Y9441D1*
X17780Y9384D1*
X17757Y9330D1*
X17742Y9306D1*
X12456Y1375D2*
D21*
Y996D1*
X12058Y1375D2*
X12456D1*
X18544Y5691D2*
Y4934D1*
X8313Y5748D2*
Y5311D1*
X7836D2*
X8789D1*
X12246Y8669D2*
X12625D1*
X16169Y5004D2*
Y4246D1*
Y4625D2*
X16567D1*
X15500Y6817D2*
Y6419D1*
X15121D2*
X15879D1*
X18563Y9754D2*
Y9258D1*
X18066D2*
X19059D1*
X19625Y6105D2*
Y4482D1*
Y5293D2*
X20437D1*
X19625Y11278D2*
Y9655D1*
X18814Y10467D2*
X20437D1*
X12387Y7372D2*
Y6379D1*
X14036Y5517D2*
X15030D1*
X14533Y5320D2*
X15030D1*
X14533Y4926D2*
X15030D1*
X14533Y4533D2*
X15030D1*
X12191Y2884D2*
Y2387D1*
X9251Y8603D2*
Y7649D1*
X8774Y8126D2*
X9728D1*
D29*
X13125Y1375D3*
X12456D3*
X17875Y5313D3*
X18544D3*
D25*
X8313Y4563D3*
Y5311D3*
D26*
X12625Y8000D3*
Y8669D3*
D29*
X15500Y4625D3*
X16169D3*
D26*
X15500Y5750D3*
Y6419D3*
D33*
X22425Y1558D3*
D34*
Y2558D3*
Y3558D3*
D33*
X18563Y6502D3*
D35*
Y7486D3*
Y8274D3*
Y9258D3*
D36*
X19625Y5293D3*
Y10467D3*
D41*
X17284Y6188D3*
X17875D3*
D43*
X3750Y2063D3*
X2688D3*
D46*
X10813Y6875D3*
X11009D3*
X11206D3*
X11403D3*
X11600D3*
X11797D3*
X11994D3*
X12191D3*
X12387D3*
X12584D3*
X12781D3*
X12978D3*
X13175D3*
X13372D3*
X13569D3*
X13765D3*
D47*
X14533Y6107D3*
Y5911D3*
Y5714D3*
Y5517D3*
Y5320D3*
Y5123D3*
Y4926D3*
Y4730D3*
Y4533D3*
Y4336D3*
Y4139D3*
Y3942D3*
Y3745D3*
Y3548D3*
Y3352D3*
Y3155D3*
D46*
X13765Y2387D3*
X13569D3*
X13372D3*
X13175D3*
X12978D3*
X12781D3*
X12584D3*
X12387D3*
X12191D3*
X11994D3*
X11797D3*
X11600D3*
X11403D3*
X11206D3*
X11009D3*
X10813D3*
D47*
X10045Y3155D3*
Y3352D3*
Y3548D3*
Y3745D3*
Y3942D3*
Y4139D3*
Y4336D3*
Y4533D3*
Y4730D3*
Y4926D3*
Y5123D3*
Y5320D3*
Y5517D3*
Y5714D3*
Y5911D3*
Y6107D3*
D50*
X11251Y8126D3*
D53*
X10251D3*
X9251D3*
X8251D3*
X7251D3*
X6251D3*
D57*
X2937Y12580D3*
Y14549D3*
M02*
